%FSLAX24Y24*%
%MOIN*%
G70*
G01*
G75*
G04 Layer_Physical_Order=2*
G04 Layer_Color=16711680*
%ADD10R,0.0512X0.0217*%
%ADD11R,0.0197X0.0354*%
%ADD12R,0.0354X0.0197*%
%ADD13O,0.0118X0.0650*%
%ADD14C,0.0120*%
%ADD15C,0.0150*%
%ADD16C,0.0200*%
%ADD17C,0.1102*%
%ADD18C,0.0591*%
%ADD19R,0.0591X0.0591*%
%ADD20R,0.0591X0.0591*%
%ADD21C,0.0661*%
%ADD22C,0.0400*%
%ADD23C,0.1500*%
%ADD24R,0.0551X0.0472*%
%ADD25R,0.0669X0.0433*%
%ADD26R,0.0450X0.0700*%
%ADD27R,0.1161X0.0661*%
%ADD28R,0.1161X0.3902*%
%ADD29R,0.0700X0.0450*%
G36*
X27138Y16899D02*
X27088Y16891D01*
X27052Y17011D01*
X26977Y17152D01*
X26876Y17276D01*
X26752Y17377D01*
X26611Y17452D01*
X26459Y17498D01*
X26300Y17514D01*
X26141Y17498D01*
X25989Y17452D01*
X25848Y17377D01*
X25724Y17276D01*
X25623Y17152D01*
X25548Y17011D01*
X25502Y16859D01*
X25486Y16700D01*
X25502Y16541D01*
X25548Y16389D01*
X25623Y16248D01*
X25724Y16124D01*
X25848Y16023D01*
X25989Y15948D01*
X26141Y15902D01*
X26300Y15886D01*
X26459Y15902D01*
X26611Y15948D01*
X26752Y16023D01*
X26876Y16124D01*
X26977Y16248D01*
X27052Y16389D01*
X27088Y16509D01*
X27138Y16501D01*
Y11499D01*
X27088Y11491D01*
X27052Y11611D01*
X26977Y11752D01*
X26876Y11876D01*
X26752Y11977D01*
X26611Y12052D01*
X26459Y12098D01*
X26300Y12114D01*
X26141Y12098D01*
X25989Y12052D01*
X25848Y11977D01*
X25724Y11876D01*
X25623Y11752D01*
X25548Y11611D01*
X25502Y11459D01*
X25486Y11300D01*
X25502Y11141D01*
X25548Y10989D01*
X25623Y10848D01*
X25724Y10724D01*
X25848Y10623D01*
X25989Y10548D01*
X26141Y10502D01*
X26300Y10486D01*
X26459Y10502D01*
X26611Y10548D01*
X26752Y10623D01*
X26876Y10724D01*
X26977Y10848D01*
X27052Y10989D01*
X27088Y11109D01*
X27138Y11101D01*
Y10112D01*
X8612D01*
Y11101D01*
X8662Y11109D01*
X8698Y10989D01*
X8773Y10848D01*
X8874Y10724D01*
X8998Y10623D01*
X9139Y10548D01*
X9291Y10502D01*
X9450Y10486D01*
X9609Y10502D01*
X9761Y10548D01*
X9902Y10623D01*
X10026Y10724D01*
X10127Y10848D01*
X10202Y10989D01*
X10248Y11141D01*
X10264Y11300D01*
X10248Y11459D01*
X10202Y11611D01*
X10127Y11752D01*
X10026Y11876D01*
X9902Y11977D01*
X9761Y12052D01*
X9609Y12098D01*
X9450Y12114D01*
X9291Y12098D01*
X9139Y12052D01*
X8998Y11977D01*
X8874Y11876D01*
X8773Y11752D01*
X8698Y11611D01*
X8662Y11491D01*
X8612Y11499D01*
Y16501D01*
X8662Y16509D01*
X8698Y16389D01*
X8773Y16248D01*
X8874Y16124D01*
X8998Y16023D01*
X9139Y15948D01*
X9291Y15902D01*
X9450Y15886D01*
X9609Y15902D01*
X9761Y15948D01*
X9902Y16023D01*
X10026Y16124D01*
X10127Y16248D01*
X10202Y16389D01*
X10248Y16541D01*
X10264Y16700D01*
X10248Y16859D01*
X10202Y17011D01*
X10127Y17152D01*
X10026Y17276D01*
X9902Y17377D01*
X9761Y17452D01*
X9609Y17498D01*
X9450Y17514D01*
X9291Y17498D01*
X9139Y17452D01*
X8998Y17377D01*
X8874Y17276D01*
X8773Y17152D01*
X8698Y17011D01*
X8662Y16891D01*
X8612Y16899D01*
Y17888D01*
X27138D01*
Y16899D01*
D02*
G37*
%LPC*%
G36*
X19175Y14126D02*
X19055Y14122D01*
X18937Y14095D01*
X18828Y14045D01*
X18730Y13975D01*
X18648Y13887D01*
X18584Y13785D01*
X18542Y13672D01*
X18522Y13553D01*
X18526Y13433D01*
X18553Y13316D01*
X18603Y13206D01*
X18673Y13108D01*
X18761Y13026D01*
X18863Y12962D01*
X18972Y12922D01*
Y12460D01*
X18815D01*
Y11640D01*
X19385D01*
Y11887D01*
X19465D01*
Y11640D01*
X20035D01*
Y12460D01*
X19465D01*
Y12213D01*
X19385D01*
Y12460D01*
X19298D01*
Y12924D01*
X19332Y12932D01*
X19442Y12981D01*
X19540Y13051D01*
X19622Y13139D01*
X19686Y13242D01*
X19728Y13354D01*
X19748Y13473D01*
X19744Y13593D01*
X19716Y13711D01*
X19667Y13820D01*
X19597Y13918D01*
X19509Y14000D01*
X19406Y14064D01*
X19294Y14106D01*
X19175Y14126D01*
D02*
G37*
G36*
X11000Y12358D02*
X10907Y12346D01*
X10821Y12310D01*
X10747Y12253D01*
X10690Y12179D01*
X10654Y12093D01*
X10642Y12000D01*
X10654Y11907D01*
X10690Y11821D01*
X10747Y11747D01*
X10821Y11690D01*
X10907Y11654D01*
X11000Y11642D01*
X11093Y11654D01*
X11179Y11690D01*
X11253Y11747D01*
X11310Y11821D01*
X11346Y11907D01*
X11358Y12000D01*
X11346Y12093D01*
X11310Y12179D01*
X11253Y12253D01*
X11179Y12310D01*
X11093Y12346D01*
X11000Y12358D01*
D02*
G37*
G36*
X16426Y11571D02*
X16125D01*
Y11309D01*
X16426D01*
Y11571D01*
D02*
G37*
G36*
X20075Y11200D02*
X19825D01*
Y10825D01*
X20075D01*
Y11200D01*
D02*
G37*
G36*
X17641Y13240D02*
X17520Y13236D01*
X17403Y13209D01*
X17293Y13159D01*
X17196Y13089D01*
X17113Y13001D01*
X17050Y12899D01*
X17007Y12786D01*
X16988Y12668D01*
X16992Y12547D01*
X17019Y12430D01*
X17069Y12320D01*
X17139Y12222D01*
X17227Y12140D01*
X17329Y12077D01*
X17437Y12036D01*
Y11858D01*
X17205D01*
Y11305D01*
X17995D01*
Y11858D01*
X17764D01*
Y12038D01*
X17798Y12046D01*
X17908Y12096D01*
X18005Y12166D01*
X18088Y12254D01*
X18151Y12356D01*
X18194Y12468D01*
X18213Y12587D01*
X18209Y12708D01*
X18182Y12825D01*
X18132Y12934D01*
X18062Y13032D01*
X17974Y13115D01*
X17872Y13178D01*
X17760Y13221D01*
X17641Y13240D01*
D02*
G37*
G36*
X15975Y11571D02*
X15674D01*
Y11309D01*
X15975D01*
Y11571D01*
D02*
G37*
G36*
X24750Y12358D02*
X24657Y12346D01*
X24571Y12310D01*
X24497Y12253D01*
X24440Y12179D01*
X24404Y12093D01*
X24392Y12000D01*
X24404Y11907D01*
X24440Y11821D01*
X24497Y11747D01*
X24571Y11690D01*
X24657Y11654D01*
X24750Y11642D01*
X24843Y11654D01*
X24929Y11690D01*
X25003Y11747D01*
X25060Y11821D01*
X25096Y11907D01*
X25108Y12000D01*
X25096Y12093D01*
X25060Y12179D01*
X25003Y12253D01*
X24929Y12310D01*
X24843Y12346D01*
X24750Y12358D01*
D02*
G37*
G36*
X23068Y12938D02*
X22462D01*
Y12582D01*
X23068D01*
Y12938D01*
D02*
G37*
G36*
X23823D02*
X23218D01*
Y12582D01*
X23823D01*
Y12938D01*
D02*
G37*
G36*
Y15460D02*
X22462D01*
Y13484D01*
X22462Y13484D01*
X22462Y13444D01*
X22462D01*
Y13088D01*
X23823D01*
Y13444D01*
D01*
Y13444D01*
X23823Y13444D01*
Y13484D01*
X23823D01*
Y15460D01*
D02*
G37*
G36*
X15975Y11982D02*
X15674D01*
Y11721D01*
X15975D01*
Y11982D01*
D02*
G37*
G36*
X16426D02*
X16125D01*
Y11721D01*
X16426D01*
Y11982D01*
D02*
G37*
G36*
X16106Y14127D02*
X15986Y14123D01*
X15868Y14096D01*
X15759Y14046D01*
X15661Y13976D01*
X15578Y13888D01*
X15515Y13786D01*
X15472Y13673D01*
X15453Y13554D01*
X15457Y13434D01*
X15484Y13317D01*
X15534Y13207D01*
X15604Y13109D01*
X15692Y13027D01*
X15794Y12963D01*
X15887Y12928D01*
Y12651D01*
X15714D01*
Y12058D01*
X16386D01*
Y12651D01*
X16213D01*
Y12921D01*
X16263Y12933D01*
X16373Y12982D01*
X16471Y13052D01*
X16553Y13140D01*
X16617Y13243D01*
X16659Y13355D01*
X16679Y13474D01*
X16675Y13594D01*
X16647Y13712D01*
X16598Y13821D01*
X16527Y13919D01*
X16440Y14001D01*
X16337Y14065D01*
X16225Y14107D01*
X16106Y14127D01*
D02*
G37*
G36*
X19025Y11200D02*
X18775D01*
Y10825D01*
X19025D01*
Y11200D01*
D02*
G37*
G36*
X19675D02*
X19175D01*
Y10750D01*
Y10300D01*
X19675D01*
Y10750D01*
Y11200D01*
D02*
G37*
G36*
X20075Y10675D02*
X19825D01*
Y10300D01*
X20075D01*
Y10675D01*
D02*
G37*
G36*
X12731Y10519D02*
X12514D01*
X12514Y10515D01*
X12544Y10442D01*
X12592Y10380D01*
X12655Y10332D01*
X12728Y10301D01*
X12731Y10301D01*
Y10519D01*
D02*
G37*
G36*
X17525Y10444D02*
X17165D01*
Y10202D01*
X17525D01*
Y10444D01*
D02*
G37*
G36*
X18035D02*
X17675D01*
Y10202D01*
X18035D01*
Y10444D01*
D02*
G37*
G36*
X19025Y10675D02*
X18775D01*
Y10300D01*
X19025D01*
Y10675D01*
D02*
G37*
G36*
X13099Y10519D02*
X12881D01*
Y10301D01*
X12885Y10301D01*
X12958Y10332D01*
X13020Y10380D01*
X13068Y10442D01*
X13099Y10515D01*
X13099Y10519D01*
D02*
G37*
G36*
X25105Y11355D02*
X24395D01*
Y10645D01*
X25105D01*
Y11355D01*
D02*
G37*
G36*
X12731Y10886D02*
X12728Y10886D01*
X12655Y10856D01*
X12592Y10808D01*
X12544Y10745D01*
X12514Y10672D01*
X12514Y10669D01*
X12731D01*
Y10886D01*
D02*
G37*
G36*
X12881D02*
Y10669D01*
X13099D01*
X13099Y10672D01*
X13068Y10745D01*
X13020Y10808D01*
X12958Y10856D01*
X12885Y10886D01*
X12881Y10886D01*
D02*
G37*
G36*
X17525Y10835D02*
X17165D01*
Y10594D01*
X17525D01*
Y10835D01*
D02*
G37*
G36*
X18035D02*
X17675D01*
Y10594D01*
X18035D01*
Y10835D01*
D02*
G37*
G36*
X11355Y11355D02*
X10645D01*
Y10645D01*
X11355D01*
Y11355D01*
D02*
G37*
G36*
X10250Y14358D02*
X10157Y14346D01*
X10071Y14310D01*
X9997Y14253D01*
X9940Y14179D01*
X9904Y14093D01*
X9892Y14000D01*
X9904Y13907D01*
X9940Y13821D01*
X9997Y13747D01*
X10071Y13690D01*
X10157Y13654D01*
X10250Y13642D01*
X10343Y13654D01*
X10429Y13690D01*
X10503Y13747D01*
X10560Y13821D01*
X10596Y13907D01*
X10608Y14000D01*
X10596Y14093D01*
X10560Y14179D01*
X10503Y14253D01*
X10429Y14310D01*
X10343Y14346D01*
X10250Y14358D01*
D02*
G37*
G36*
X15125Y16675D02*
X14750D01*
Y16425D01*
X15125D01*
Y16675D01*
D02*
G37*
G36*
X15650D02*
X15275D01*
Y16425D01*
X15650D01*
Y16675D01*
D02*
G37*
G36*
X10925Y16925D02*
X10611D01*
X10615Y16897D01*
X10655Y16801D01*
X10718Y16718D01*
X10801Y16655D01*
X10897Y16615D01*
X10925Y16611D01*
Y16925D01*
D02*
G37*
G36*
X25105Y16355D02*
X24395D01*
Y15645D01*
X25105D01*
Y16355D01*
D02*
G37*
G36*
X10925Y16395D02*
X10605D01*
Y16075D01*
X10925D01*
Y16395D01*
D02*
G37*
G36*
X11395D02*
X11075D01*
Y16075D01*
X11395D01*
Y16395D01*
D02*
G37*
G36*
X11389Y16925D02*
X11075D01*
Y16611D01*
X11103Y16615D01*
X11199Y16655D01*
X11282Y16718D01*
X11345Y16801D01*
X11385Y16897D01*
X11389Y16925D01*
D02*
G37*
G36*
X11075Y17389D02*
Y17075D01*
X11389D01*
X11385Y17103D01*
X11345Y17199D01*
X11282Y17282D01*
X11199Y17345D01*
X11103Y17385D01*
X11075Y17389D01*
D02*
G37*
G36*
X15125Y17725D02*
X14750D01*
Y17475D01*
X15125D01*
Y17725D01*
D02*
G37*
G36*
X15650D02*
X15275D01*
Y17475D01*
X15650D01*
Y17725D01*
D02*
G37*
G36*
X24750Y17358D02*
X24657Y17346D01*
X24571Y17310D01*
X24497Y17253D01*
X24440Y17179D01*
X24404Y17093D01*
X24392Y17000D01*
X24404Y16907D01*
X24440Y16821D01*
X24497Y16747D01*
X24571Y16690D01*
X24657Y16654D01*
X24750Y16642D01*
X24843Y16654D01*
X24929Y16690D01*
X25003Y16747D01*
X25060Y16821D01*
X25096Y16907D01*
X25108Y17000D01*
X25096Y17093D01*
X25060Y17179D01*
X25003Y17253D01*
X24929Y17310D01*
X24843Y17346D01*
X24750Y17358D01*
D02*
G37*
G36*
X15650Y17325D02*
X14750D01*
Y17075D01*
Y16825D01*
X15650D01*
Y17075D01*
Y17325D01*
D02*
G37*
G36*
X10925Y17389D02*
X10897Y17385D01*
X10801Y17345D01*
X10718Y17282D01*
X10655Y17199D01*
X10615Y17103D01*
X10611Y17075D01*
X10925D01*
Y17389D01*
D02*
G37*
G36*
X23823Y17585D02*
X23218D01*
Y15610D01*
X23823D01*
Y17585D01*
D02*
G37*
G36*
X14725Y14471D02*
X14424D01*
Y14209D01*
X14725D01*
Y14471D01*
D02*
G37*
G36*
X15176D02*
X14875D01*
Y14209D01*
X15176D01*
Y14471D01*
D02*
G37*
G36*
X14725Y14882D02*
X14424D01*
Y14621D01*
X14725D01*
Y14882D01*
D02*
G37*
G36*
X9605Y14355D02*
X8895D01*
Y13645D01*
X9605D01*
Y14355D01*
D02*
G37*
G36*
X17640Y15013D02*
X17520Y15009D01*
X17403Y14982D01*
X17293Y14932D01*
X17195Y14862D01*
X17113Y14774D01*
X17049Y14672D01*
X17007Y14559D01*
X16987Y14440D01*
X16991Y14320D01*
X17018Y14203D01*
X17068Y14093D01*
X17138Y13995D01*
X17226Y13913D01*
X17328Y13849D01*
X17441Y13807D01*
X17560Y13787D01*
X17680Y13791D01*
X17797Y13818D01*
X17907Y13868D01*
X18005Y13938D01*
X18087Y14026D01*
X18151Y14128D01*
X18193Y14241D01*
X18213Y14360D01*
X18209Y14480D01*
X18182Y14597D01*
X18132Y14707D01*
X18062Y14805D01*
X17974Y14887D01*
X17872Y14951D01*
X17759Y14993D01*
X17640Y15013D01*
D02*
G37*
G36*
X12600Y14894D02*
X12498Y14881D01*
X12403Y14841D01*
X12321Y14779D01*
X12259Y14697D01*
X12219Y14602D01*
X12206Y14500D01*
X12219Y14398D01*
X12259Y14303D01*
X12321Y14221D01*
X12403Y14159D01*
X12498Y14119D01*
X12600Y14106D01*
X12702Y14119D01*
X12797Y14159D01*
X12879Y14221D01*
X12941Y14303D01*
X12981Y14398D01*
X12994Y14500D01*
X12981Y14602D01*
X12941Y14697D01*
X12879Y14779D01*
X12797Y14841D01*
X12702Y14881D01*
X12600Y14894D01*
D02*
G37*
G36*
X15176Y14882D02*
X14875D01*
Y14621D01*
X15176D01*
Y14882D01*
D02*
G37*
G36*
X10925Y15925D02*
X10605D01*
Y15605D01*
X10925D01*
Y15925D01*
D02*
G37*
G36*
X11395D02*
X11075D01*
Y15605D01*
X11395D01*
Y15925D01*
D02*
G37*
G36*
X23068Y17585D02*
X22462D01*
Y15610D01*
X23068D01*
Y17585D01*
D02*
G37*
G36*
X21421Y17545D02*
X20140D01*
Y15449D01*
X19724D01*
X19716Y15483D01*
X19666Y15593D01*
X19596Y15691D01*
X19508Y15773D01*
X19406Y15837D01*
X19293Y15879D01*
X19174Y15899D01*
X19054Y15895D01*
X18937Y15867D01*
X18827Y15818D01*
X18729Y15748D01*
X18647Y15660D01*
X18583Y15557D01*
X18541Y15445D01*
X18521Y15326D01*
X18525Y15206D01*
X18553Y15088D01*
X18602Y14979D01*
X18673Y14881D01*
X18760Y14799D01*
X18863Y14735D01*
X18975Y14693D01*
X19094Y14673D01*
X19214Y14677D01*
X19332Y14704D01*
X19441Y14754D01*
X19539Y14824D01*
X19622Y14912D01*
X19685Y15014D01*
X19726Y15123D01*
X20140D01*
Y13524D01*
X20368D01*
Y13404D01*
X20140D01*
Y12622D01*
X21421D01*
Y13404D01*
X20695D01*
Y13524D01*
X21421D01*
Y17545D01*
D02*
G37*
G36*
X16105Y15900D02*
X15985Y15896D01*
X15868Y15868D01*
X15758Y15819D01*
X15660Y15749D01*
X15578Y15661D01*
X15514Y15558D01*
X15474Y15450D01*
X15136D01*
Y15551D01*
X14464D01*
Y14958D01*
X15136D01*
Y15124D01*
X15476D01*
X15484Y15089D01*
X15533Y14980D01*
X15603Y14882D01*
X15691Y14800D01*
X15794Y14736D01*
X15906Y14694D01*
X16025Y14674D01*
X16145Y14678D01*
X16263Y14705D01*
X16372Y14755D01*
X16470Y14825D01*
X16552Y14913D01*
X16616Y15015D01*
X16658Y15128D01*
X16678Y15247D01*
X16674Y15367D01*
X16647Y15484D01*
X16597Y15594D01*
X16527Y15692D01*
X16439Y15774D01*
X16337Y15838D01*
X16224Y15880D01*
X16105Y15900D01*
D02*
G37*
G36*
X16910Y17685D02*
X16090D01*
Y17115D01*
X16337D01*
Y17035D01*
X16090D01*
Y16465D01*
X16910D01*
Y16566D01*
X16956Y16585D01*
X17067Y16474D01*
X17049Y16444D01*
X17006Y16332D01*
X16987Y16213D01*
X16991Y16092D01*
X17018Y15975D01*
X17068Y15866D01*
X17138Y15768D01*
X17226Y15685D01*
X17328Y15622D01*
X17440Y15579D01*
X17559Y15560D01*
X17680Y15564D01*
X17797Y15591D01*
X17907Y15641D01*
X18004Y15711D01*
X18087Y15799D01*
X18150Y15901D01*
X18193Y16014D01*
X18212Y16132D01*
X18208Y16253D01*
X18181Y16370D01*
X18131Y16480D01*
X18061Y16578D01*
X17973Y16660D01*
X17871Y16723D01*
X17758Y16766D01*
X17640Y16785D01*
X17519Y16782D01*
X17402Y16754D01*
X17296Y16706D01*
X17137Y16865D01*
X17084Y16901D01*
X17022Y16913D01*
X16910D01*
Y17035D01*
X16663D01*
Y17115D01*
X16910D01*
Y17685D01*
D02*
G37*
%LPD*%
D16*
X16500Y16750D02*
Y17400D01*
Y16750D02*
X17022D01*
X17599Y16173D01*
X14800Y15254D02*
X14832Y15287D01*
X16065D01*
X20531Y13262D02*
X20780Y13013D01*
X20531Y13262D02*
Y15286D01*
X19134D02*
X20531D01*
X19135Y12085D02*
X19170Y12050D01*
X19750D01*
X19135Y12085D02*
Y13513D01*
X17600Y11581D02*
X17601Y11582D01*
Y12627D01*
X16050Y12354D02*
Y13498D01*
X16066Y13514D01*
D17*
X17600Y14400D02*
D03*
X17601Y12627D02*
D03*
X19135Y13513D02*
D03*
X19134Y15286D02*
D03*
X17599Y16173D02*
D03*
X16065Y15287D02*
D03*
X16066Y13514D02*
D03*
D18*
X11000Y17000D02*
D03*
X10250Y14000D02*
D03*
X24750Y17000D02*
D03*
Y12000D02*
D03*
X11000D02*
D03*
D19*
Y16000D02*
D03*
X24750D02*
D03*
Y11000D02*
D03*
X11000D02*
D03*
D20*
X9250Y14000D02*
D03*
D21*
X12600Y14500D02*
D03*
D22*
X12806Y10594D02*
D03*
D23*
X9450Y16700D02*
D03*
Y11300D02*
D03*
X26300D02*
D03*
Y16700D02*
D03*
D24*
X14800Y14546D02*
D03*
Y15254D02*
D03*
X16050Y11646D02*
D03*
Y12354D02*
D03*
D25*
X17600Y11581D02*
D03*
Y10518D02*
D03*
D26*
X19100Y10750D02*
D03*
X19750D02*
D03*
Y12050D02*
D03*
X19100D02*
D03*
D27*
X20780Y13013D02*
D03*
X23143D02*
D03*
D28*
X20780Y15535D02*
D03*
X23143D02*
D03*
D29*
X15200Y17400D02*
D03*
Y16750D02*
D03*
X16500D02*
D03*
Y17400D02*
D03*
M02*
