%FSLAX24Y24*%
%MOIN*%
G70*
G01*
G75*
G04 Layer_Physical_Order=1*
G04 Layer_Color=255*
%ADD10R,0.0512X0.0217*%
%ADD11R,0.0197X0.0354*%
%ADD12R,0.0354X0.0197*%
%ADD13O,0.0118X0.0650*%
%ADD14C,0.0120*%
%ADD15C,0.0150*%
%ADD16C,0.0200*%
%ADD17C,0.1102*%
%ADD18C,0.0591*%
%ADD19R,0.0591X0.0591*%
%ADD20R,0.0591X0.0591*%
%ADD21C,0.0661*%
%ADD22C,0.0400*%
%ADD23C,0.1500*%
G36*
X27138Y16899D02*
X27088Y16891D01*
X27052Y17011D01*
X26977Y17152D01*
X26876Y17276D01*
X26752Y17377D01*
X26611Y17452D01*
X26459Y17498D01*
X26300Y17514D01*
X26141Y17498D01*
X25989Y17452D01*
X25848Y17377D01*
X25724Y17276D01*
X25623Y17152D01*
X25548Y17011D01*
X25502Y16859D01*
X25486Y16700D01*
X25502Y16541D01*
X25548Y16389D01*
X25623Y16248D01*
X25724Y16124D01*
X25848Y16023D01*
X25989Y15948D01*
X26141Y15902D01*
X26300Y15886D01*
X26459Y15902D01*
X26611Y15948D01*
X26752Y16023D01*
X26876Y16124D01*
X26977Y16248D01*
X27052Y16389D01*
X27088Y16509D01*
X27138Y16501D01*
Y11499D01*
X27088Y11491D01*
X27052Y11611D01*
X26977Y11752D01*
X26876Y11876D01*
X26752Y11977D01*
X26611Y12052D01*
X26459Y12098D01*
X26300Y12114D01*
X26141Y12098D01*
X25989Y12052D01*
X25848Y11977D01*
X25724Y11876D01*
X25623Y11752D01*
X25548Y11611D01*
X25502Y11459D01*
X25486Y11300D01*
X25502Y11141D01*
X25548Y10989D01*
X25623Y10848D01*
X25724Y10724D01*
X25848Y10623D01*
X25989Y10548D01*
X26141Y10502D01*
X26300Y10486D01*
X26459Y10502D01*
X26611Y10548D01*
X26752Y10623D01*
X26876Y10724D01*
X26977Y10848D01*
X27052Y10989D01*
X27088Y11109D01*
X27138Y11101D01*
Y10112D01*
X8612D01*
Y11101D01*
X8662Y11109D01*
X8698Y10989D01*
X8773Y10848D01*
X8874Y10724D01*
X8998Y10623D01*
X9139Y10548D01*
X9291Y10502D01*
X9450Y10486D01*
X9609Y10502D01*
X9761Y10548D01*
X9902Y10623D01*
X10026Y10724D01*
X10127Y10848D01*
X10202Y10989D01*
X10248Y11141D01*
X10264Y11300D01*
X10248Y11459D01*
X10202Y11611D01*
X10127Y11752D01*
X10026Y11876D01*
X9902Y11977D01*
X9761Y12052D01*
X9609Y12098D01*
X9450Y12114D01*
X9291Y12098D01*
X9139Y12052D01*
X8998Y11977D01*
X8874Y11876D01*
X8773Y11752D01*
X8698Y11611D01*
X8662Y11491D01*
X8612Y11499D01*
Y16501D01*
X8662Y16509D01*
X8698Y16389D01*
X8773Y16248D01*
X8874Y16124D01*
X8998Y16023D01*
X9139Y15948D01*
X9291Y15902D01*
X9450Y15886D01*
X9609Y15902D01*
X9761Y15948D01*
X9902Y16023D01*
X10026Y16124D01*
X10127Y16248D01*
X10202Y16389D01*
X10248Y16541D01*
X10264Y16700D01*
X10248Y16859D01*
X10202Y17011D01*
X10127Y17152D01*
X10026Y17276D01*
X9902Y17377D01*
X9761Y17452D01*
X9609Y17498D01*
X9450Y17514D01*
X9291Y17498D01*
X9139Y17452D01*
X8998Y17377D01*
X8874Y17276D01*
X8773Y17152D01*
X8698Y17011D01*
X8662Y16891D01*
X8612Y16899D01*
Y17888D01*
X27138D01*
Y16899D01*
D02*
G37*
%LPC*%
G36*
X17641Y13240D02*
X17520Y13236D01*
X17403Y13209D01*
X17293Y13159D01*
X17196Y13089D01*
X17113Y13001D01*
X17050Y12899D01*
X17007Y12786D01*
X16988Y12668D01*
X16992Y12547D01*
X17019Y12430D01*
X17069Y12320D01*
X17139Y12222D01*
X17227Y12140D01*
X17329Y12077D01*
X17442Y12034D01*
X17560Y12015D01*
X17681Y12018D01*
X17798Y12046D01*
X17908Y12096D01*
X18005Y12166D01*
X18088Y12254D01*
X18151Y12356D01*
X18194Y12468D01*
X18213Y12587D01*
X18209Y12708D01*
X18182Y12825D01*
X18132Y12934D01*
X18062Y13032D01*
X17974Y13115D01*
X17872Y13178D01*
X17760Y13221D01*
X17641Y13240D01*
D02*
G37*
G36*
X10925Y12389D02*
X10897Y12385D01*
X10801Y12345D01*
X10718Y12282D01*
X10655Y12199D01*
X10615Y12103D01*
X10611Y12075D01*
X10925D01*
Y12389D01*
D02*
G37*
G36*
X11389Y11925D02*
X11075D01*
Y11611D01*
X11103Y11615D01*
X11199Y11655D01*
X11282Y11718D01*
X11345Y11801D01*
X11385Y11897D01*
X11389Y11925D01*
D02*
G37*
G36*
X24675D02*
X24361D01*
X24365Y11897D01*
X24405Y11801D01*
X24468Y11718D01*
X24551Y11655D01*
X24647Y11615D01*
X24675Y11611D01*
Y11925D01*
D02*
G37*
G36*
X25139D02*
X24825D01*
Y11611D01*
X24853Y11615D01*
X24949Y11655D01*
X25032Y11718D01*
X25095Y11801D01*
X25135Y11897D01*
X25139Y11925D01*
D02*
G37*
G36*
X19175Y14126D02*
X19055Y14122D01*
X18937Y14095D01*
X18828Y14045D01*
X18730Y13975D01*
X18648Y13887D01*
X18584Y13785D01*
X18542Y13672D01*
X18522Y13553D01*
X18526Y13433D01*
X18553Y13316D01*
X18603Y13206D01*
X18673Y13108D01*
X18761Y13026D01*
X18863Y12962D01*
X18976Y12920D01*
X19095Y12900D01*
X19215Y12904D01*
X19332Y12932D01*
X19442Y12981D01*
X19540Y13051D01*
X19622Y13139D01*
X19686Y13242D01*
X19728Y13354D01*
X19748Y13473D01*
X19744Y13593D01*
X19716Y13711D01*
X19667Y13820D01*
X19597Y13918D01*
X19509Y14000D01*
X19406Y14064D01*
X19294Y14106D01*
X19175Y14126D01*
D02*
G37*
G36*
X16106Y14127D02*
X15986Y14123D01*
X15868Y14096D01*
X15759Y14046D01*
X15661Y13976D01*
X15578Y13888D01*
X15515Y13786D01*
X15472Y13673D01*
X15453Y13554D01*
X15457Y13434D01*
X15484Y13317D01*
X15534Y13207D01*
X15604Y13109D01*
X15692Y13027D01*
X15794Y12963D01*
X15907Y12921D01*
X16026Y12901D01*
X16146Y12905D01*
X16263Y12933D01*
X16373Y12982D01*
X16471Y13052D01*
X16553Y13140D01*
X16617Y13243D01*
X16659Y13355D01*
X16679Y13474D01*
X16675Y13594D01*
X16647Y13712D01*
X16598Y13821D01*
X16527Y13919D01*
X16440Y14001D01*
X16337Y14065D01*
X16225Y14107D01*
X16106Y14127D01*
D02*
G37*
G36*
X24825Y12389D02*
Y12075D01*
X25139D01*
X25135Y12103D01*
X25095Y12199D01*
X25032Y12282D01*
X24949Y12345D01*
X24853Y12385D01*
X24825Y12389D01*
D02*
G37*
G36*
X11075D02*
Y12075D01*
X11389D01*
X11385Y12103D01*
X11345Y12199D01*
X11282Y12282D01*
X11199Y12345D01*
X11103Y12385D01*
X11075Y12389D01*
D02*
G37*
G36*
X24675D02*
X24647Y12385D01*
X24551Y12345D01*
X24468Y12282D01*
X24405Y12199D01*
X24365Y12103D01*
X24361Y12075D01*
X24675D01*
Y12389D01*
D02*
G37*
G36*
X10925Y11925D02*
X10611D01*
X10615Y11897D01*
X10655Y11801D01*
X10718Y11718D01*
X10801Y11655D01*
X10897Y11615D01*
X10925Y11611D01*
Y11925D01*
D02*
G37*
G36*
X25145Y10925D02*
X24825D01*
Y10605D01*
X25145D01*
Y10925D01*
D02*
G37*
G36*
X13756Y11218D02*
X13669D01*
Y10886D01*
X13708Y10912D01*
X13744Y10965D01*
X13756Y11027D01*
Y11218D01*
D02*
G37*
G36*
X24675Y10925D02*
X24355D01*
Y10605D01*
X24675D01*
Y10925D01*
D02*
G37*
G36*
X10925D02*
X10605D01*
Y10605D01*
X10925D01*
Y10925D01*
D02*
G37*
G36*
X11395D02*
X11075D01*
Y10605D01*
X11395D01*
Y10925D01*
D02*
G37*
G36*
X25145Y11395D02*
X24825D01*
Y11075D01*
X25145D01*
Y11395D01*
D02*
G37*
G36*
X13669Y11700D02*
Y11368D01*
X13756D01*
Y11559D01*
X13744Y11621D01*
X13708Y11673D01*
X13669Y11700D01*
D02*
G37*
G36*
X24675Y11395D02*
X24355D01*
Y11075D01*
X24675D01*
Y11395D01*
D02*
G37*
G36*
X10925D02*
X10605D01*
Y11075D01*
X10925D01*
Y11395D01*
D02*
G37*
G36*
X11395D02*
X11075D01*
Y11075D01*
X11395D01*
Y11395D01*
D02*
G37*
G36*
X11925Y16694D02*
X11723D01*
Y16570D01*
X11925D01*
Y16694D01*
D02*
G37*
G36*
X12277D02*
X12075D01*
Y16570D01*
X12277D01*
Y16694D01*
D02*
G37*
G36*
X14004Y17537D02*
X13687D01*
Y17063D01*
X13708D01*
Y16842D01*
X13426D01*
Y16562D01*
X13377Y16553D01*
X13347Y16597D01*
X13173Y16771D01*
X13129Y16801D01*
X13076Y16812D01*
X13074D01*
Y16842D01*
X12442D01*
Y16508D01*
X12402D01*
Y16375D01*
X12758D01*
Y16225D01*
X12402D01*
Y16092D01*
X12402D01*
Y16078D01*
X12367Y16042D01*
X12237D01*
Y16063D01*
X12036D01*
X12002Y16097D01*
X11957Y16127D01*
X11905Y16138D01*
X11355D01*
Y16355D01*
X10645D01*
Y15645D01*
X11355D01*
Y15862D01*
X11763D01*
Y15746D01*
X12237D01*
Y15767D01*
X12442D01*
Y15758D01*
X13074D01*
Y15771D01*
X13107Y15778D01*
X13152Y15807D01*
X13347Y16003D01*
X13377Y16047D01*
X13426Y16038D01*
Y15758D01*
X13708D01*
Y15537D01*
X13687D01*
Y15063D01*
X14004D01*
Y15537D01*
X13983D01*
Y15758D01*
X14027D01*
X14027Y15758D01*
Y15758D01*
X14058Y15758D01*
X14062Y15753D01*
Y13207D01*
X13900Y13045D01*
X13715D01*
Y13173D01*
X13706Y13219D01*
X13680Y13259D01*
X13640Y13285D01*
X13594Y13294D01*
X13547Y13285D01*
X13524Y13269D01*
X13512Y13288D01*
X13459Y13323D01*
X13397Y13335D01*
X13361Y13328D01*
X13322Y13360D01*
Y13463D01*
X13354D01*
Y13937D01*
X13037D01*
Y13506D01*
X12991Y13487D01*
X12763Y13715D01*
Y13937D01*
X12727D01*
Y14130D01*
X12797Y14159D01*
X12879Y14221D01*
X12941Y14303D01*
X12981Y14398D01*
X12994Y14500D01*
X12981Y14602D01*
X12941Y14697D01*
X12879Y14779D01*
X12797Y14841D01*
X12702Y14881D01*
X12600Y14894D01*
X12498Y14881D01*
X12403Y14841D01*
X12321Y14779D01*
X12259Y14697D01*
X12219Y14602D01*
X12206Y14500D01*
X12219Y14398D01*
X12259Y14303D01*
X12321Y14221D01*
X12403Y14159D01*
X12482Y14126D01*
Y14061D01*
X12436Y14042D01*
X12391Y14087D01*
X12352Y14113D01*
X12305Y14122D01*
X10584D01*
X10560Y14179D01*
X10503Y14253D01*
X10429Y14310D01*
X10343Y14346D01*
X10250Y14358D01*
X10157Y14346D01*
X10071Y14310D01*
X9997Y14253D01*
X9940Y14179D01*
X9916Y14122D01*
X9605D01*
Y14355D01*
X8895D01*
Y13645D01*
X9605D01*
Y13878D01*
X9916D01*
X9940Y13821D01*
X9997Y13747D01*
X10071Y13690D01*
X10157Y13654D01*
X10250Y13642D01*
X10343Y13654D01*
X10429Y13690D01*
X10503Y13747D01*
X10560Y13821D01*
X10584Y13878D01*
X12254D01*
X12442Y13690D01*
X12423Y13644D01*
X12275D01*
Y13445D01*
Y13247D01*
X12477D01*
Y13463D01*
X12669D01*
X12795Y13337D01*
X12780Y13289D01*
X12760Y13285D01*
X12720Y13259D01*
X12694Y13219D01*
X12685Y13173D01*
Y12977D01*
X12437D01*
Y13013D01*
X11963D01*
Y12696D01*
X12437D01*
Y12732D01*
X12684D01*
Y12394D01*
X12693Y12347D01*
X12720Y12307D01*
X12763Y12263D01*
X12787Y12248D01*
X12803Y12237D01*
X12850Y12228D01*
X13550D01*
X13597Y12237D01*
X13637Y12263D01*
X13680Y12307D01*
X13696Y12331D01*
X13707Y12347D01*
X13716Y12394D01*
Y12769D01*
X13957D01*
X14010Y12780D01*
X14054Y12810D01*
X14297Y13053D01*
X14327Y13097D01*
X14338Y13150D01*
X14338Y13150D01*
X14338Y13150D01*
Y13150D01*
Y16550D01*
X14327Y16603D01*
X14297Y16647D01*
X14173Y16771D01*
X14129Y16801D01*
X14076Y16812D01*
X14058D01*
Y16842D01*
X13983D01*
Y17063D01*
X14004D01*
Y17537D01*
D02*
G37*
G36*
X11925Y16420D02*
X11723D01*
Y16297D01*
X11925D01*
Y16420D01*
D02*
G37*
G36*
X12277D02*
X12075D01*
Y16297D01*
X12277D01*
Y16420D01*
D02*
G37*
G36*
X13180Y17577D02*
X13056D01*
Y17375D01*
X13180D01*
Y17577D01*
D02*
G37*
G36*
X13453D02*
X13330D01*
Y17375D01*
X13453D01*
Y17577D01*
D02*
G37*
G36*
Y17225D02*
X13330D01*
Y17023D01*
X13453D01*
Y17225D01*
D02*
G37*
G36*
X11000Y17358D02*
X10907Y17346D01*
X10821Y17310D01*
X10747Y17253D01*
X10690Y17179D01*
X10654Y17093D01*
X10642Y17000D01*
X10654Y16907D01*
X10690Y16821D01*
X10747Y16747D01*
X10821Y16690D01*
X10907Y16654D01*
X11000Y16642D01*
X11093Y16654D01*
X11179Y16690D01*
X11253Y16747D01*
X11310Y16821D01*
X11346Y16907D01*
X11358Y17000D01*
X11346Y17093D01*
X11310Y17179D01*
X11253Y17253D01*
X11179Y17310D01*
X11093Y17346D01*
X11000Y17358D01*
D02*
G37*
G36*
X13180Y17225D02*
X13056D01*
Y17023D01*
X13180D01*
Y17225D01*
D02*
G37*
G36*
X19174Y15899D02*
X19054Y15895D01*
X18937Y15867D01*
X18827Y15818D01*
X18729Y15748D01*
X18647Y15660D01*
X18583Y15557D01*
X18541Y15445D01*
X18521Y15326D01*
X18525Y15206D01*
X18553Y15088D01*
X18602Y14979D01*
X18673Y14881D01*
X18760Y14799D01*
X18863Y14735D01*
X18975Y14693D01*
X19094Y14673D01*
X19214Y14677D01*
X19332Y14704D01*
X19441Y14754D01*
X19539Y14824D01*
X19622Y14912D01*
X19685Y15014D01*
X19728Y15127D01*
X19747Y15246D01*
X19743Y15366D01*
X19716Y15483D01*
X19666Y15593D01*
X19596Y15691D01*
X19508Y15773D01*
X19406Y15837D01*
X19293Y15879D01*
X19174Y15899D01*
D02*
G37*
G36*
X16105Y15900D02*
X15985Y15896D01*
X15868Y15868D01*
X15758Y15819D01*
X15660Y15749D01*
X15578Y15661D01*
X15514Y15558D01*
X15472Y15446D01*
X15452Y15327D01*
X15456Y15207D01*
X15484Y15089D01*
X15533Y14980D01*
X15603Y14882D01*
X15691Y14800D01*
X15794Y14736D01*
X15906Y14694D01*
X16025Y14674D01*
X16145Y14678D01*
X16263Y14705D01*
X16372Y14755D01*
X16470Y14825D01*
X16552Y14913D01*
X16616Y15015D01*
X16658Y15128D01*
X16678Y15247D01*
X16674Y15367D01*
X16647Y15484D01*
X16597Y15594D01*
X16527Y15692D01*
X16439Y15774D01*
X16337Y15838D01*
X16224Y15880D01*
X16105Y15900D01*
D02*
G37*
G36*
X24750Y17358D02*
X24657Y17346D01*
X24571Y17310D01*
X24497Y17253D01*
X24440Y17179D01*
X24404Y17093D01*
X24392Y17000D01*
X24404Y16907D01*
X24440Y16821D01*
X24497Y16747D01*
X24571Y16690D01*
X24587Y16683D01*
Y16355D01*
X24395D01*
Y15645D01*
X24587D01*
Y15418D01*
X23732Y14563D01*
X18190D01*
X18182Y14597D01*
X18132Y14707D01*
X18062Y14805D01*
X17974Y14887D01*
X17872Y14951D01*
X17759Y14993D01*
X17640Y15013D01*
X17520Y15009D01*
X17403Y14982D01*
X17293Y14932D01*
X17195Y14862D01*
X17113Y14774D01*
X17049Y14672D01*
X17008Y14563D01*
X15500D01*
X15438Y14551D01*
X15385Y14515D01*
X14685Y13815D01*
X14649Y13762D01*
X14637Y13700D01*
Y12368D01*
X14407Y12138D01*
X13400D01*
X13347Y12127D01*
X13303Y12097D01*
X13273Y12053D01*
X13271Y12044D01*
X13113Y11887D01*
X13087Y11847D01*
X13078Y11800D01*
Y11705D01*
X13039Y11673D01*
X13003Y11680D01*
X12957Y11671D01*
X12917Y11644D01*
X12892D01*
X12853Y11671D01*
X12806Y11680D01*
X12760Y11671D01*
X12720Y11644D01*
X12694Y11605D01*
X12685Y11559D01*
Y11354D01*
X12679Y11346D01*
X12669Y11293D01*
Y10816D01*
X12621Y10779D01*
X12579Y10725D01*
X12553Y10662D01*
X12544Y10594D01*
X12553Y10526D01*
X12579Y10463D01*
X12621Y10408D01*
X12675Y10367D01*
X12738Y10340D01*
X12806Y10331D01*
X12874Y10340D01*
X12937Y10367D01*
X12992Y10408D01*
X13033Y10463D01*
X13060Y10526D01*
X13069Y10594D01*
X13060Y10662D01*
X13033Y10725D01*
X12992Y10779D01*
X12944Y10816D01*
Y10878D01*
X12983Y10910D01*
X13003Y10906D01*
X13050Y10915D01*
X13089Y10941D01*
X13114D01*
X13154Y10915D01*
X13200Y10906D01*
X13246Y10915D01*
X13286Y10941D01*
X13311D01*
X13350Y10915D01*
X13397Y10906D01*
X13443Y10915D01*
X13467Y10931D01*
X13479Y10912D01*
X13519Y10886D01*
Y11293D01*
Y11700D01*
X13479Y11673D01*
X13467Y11655D01*
X13443Y11671D01*
X13397Y11680D01*
X13361Y11673D01*
X13327Y11701D01*
X13324Y11751D01*
X13435Y11862D01*
X14418D01*
X14438Y11849D01*
X14500Y11837D01*
X14562Y11849D01*
X14615Y11885D01*
X14915Y12185D01*
X14951Y12238D01*
X14963Y12300D01*
X14963Y12300D01*
X14963Y12300D01*
Y12300D01*
Y13632D01*
X15568Y14237D01*
X17010D01*
X17018Y14203D01*
X17068Y14093D01*
X17138Y13995D01*
X17226Y13913D01*
X17328Y13849D01*
X17441Y13807D01*
X17560Y13787D01*
X17680Y13791D01*
X17797Y13818D01*
X17907Y13868D01*
X18005Y13938D01*
X18087Y14026D01*
X18151Y14128D01*
X18192Y14237D01*
X23800D01*
X23862Y14249D01*
X23915Y14285D01*
X23915Y14285D01*
X23915Y14285D01*
X24865Y15235D01*
X24901Y15288D01*
X24913Y15350D01*
X24913Y15350D01*
X24913Y15350D01*
Y15350D01*
Y15645D01*
X25105D01*
Y16355D01*
X24913D01*
Y16683D01*
X24929Y16690D01*
X25003Y16747D01*
X25060Y16821D01*
X25096Y16907D01*
X25108Y17000D01*
X25096Y17093D01*
X25060Y17179D01*
X25003Y17253D01*
X24929Y17310D01*
X24843Y17346D01*
X24750Y17358D01*
D02*
G37*
G36*
X12125Y13370D02*
X11923D01*
Y13247D01*
X12125D01*
Y13370D01*
D02*
G37*
G36*
Y13644D02*
X11923D01*
Y13520D01*
X12125D01*
Y13644D01*
D02*
G37*
G36*
X13180Y15225D02*
X13056D01*
Y15023D01*
X13180D01*
Y15225D01*
D02*
G37*
G36*
X17640Y16785D02*
X17519Y16782D01*
X17402Y16754D01*
X17292Y16704D01*
X17194Y16634D01*
X17112Y16546D01*
X17049Y16444D01*
X17006Y16332D01*
X16987Y16213D01*
X16991Y16092D01*
X17018Y15975D01*
X17068Y15866D01*
X17138Y15768D01*
X17226Y15685D01*
X17328Y15622D01*
X17440Y15579D01*
X17559Y15560D01*
X17680Y15564D01*
X17797Y15591D01*
X17907Y15641D01*
X18004Y15711D01*
X18087Y15799D01*
X18150Y15901D01*
X18193Y16014D01*
X18212Y16132D01*
X18208Y16253D01*
X18181Y16370D01*
X18131Y16480D01*
X18061Y16578D01*
X17973Y16660D01*
X17871Y16723D01*
X17758Y16766D01*
X17640Y16785D01*
D02*
G37*
G36*
X13453Y15577D02*
X13330D01*
Y15375D01*
X13453D01*
Y15577D01*
D02*
G37*
G36*
Y15225D02*
X13330D01*
Y15023D01*
X13453D01*
Y15225D01*
D02*
G37*
G36*
X13180Y15577D02*
X13056D01*
Y15375D01*
X13180D01*
Y15577D01*
D02*
G37*
%LPD*%
G36*
X14062Y16493D02*
Y16099D01*
X14058Y16094D01*
X14027Y16094D01*
X14027Y16094D01*
Y16094D01*
X13426D01*
X13426Y16094D01*
Y16094D01*
X13388Y16100D01*
Y16500D01*
X13388Y16500D01*
X13426Y16506D01*
X13426Y16506D01*
X13426Y16506D01*
X14050D01*
X14062Y16493D01*
D02*
G37*
D10*
X13742Y16674D02*
D03*
Y15926D02*
D03*
X12758D02*
D03*
Y16300D02*
D03*
Y16674D02*
D03*
D11*
X13255Y17300D02*
D03*
X13845D02*
D03*
X13255Y15300D02*
D03*
X13845D02*
D03*
X13195Y13700D02*
D03*
X12605D02*
D03*
D12*
X12000Y16495D02*
D03*
Y15905D02*
D03*
X12200Y13445D02*
D03*
Y12855D02*
D03*
D13*
X12806Y11293D02*
D03*
X13003D02*
D03*
X13200D02*
D03*
X13397D02*
D03*
X13594D02*
D03*
X12806Y12907D02*
D03*
X13003D02*
D03*
X13200D02*
D03*
X13397D02*
D03*
X13594D02*
D03*
D14*
X13397D02*
Y13397D01*
X12305Y14000D02*
X12605Y13700D01*
X10250Y14000D02*
X12305D01*
X12600Y14500D02*
X12605Y14495D01*
Y13700D02*
Y14495D01*
X13195Y13700D02*
X13200Y13695D01*
Y12907D02*
Y13695D01*
X12605Y13700D02*
X13003Y13302D01*
Y12907D02*
Y13302D01*
X12806Y12394D02*
Y12907D01*
X12200Y12855D02*
X12754D01*
X13594Y12394D02*
Y12907D01*
X13550Y12350D02*
X13594Y12394D01*
X12850Y12350D02*
X13550D01*
X12806Y12394D02*
X12850Y12350D01*
X13200Y11293D02*
Y11800D01*
X13400Y12000D01*
X9250Y14000D02*
X10250D01*
D15*
X12806Y10594D02*
Y11293D01*
X13003D01*
X13594Y12907D02*
X13957D01*
X14200Y13150D01*
Y16550D01*
X14076Y16674D02*
X14200Y16550D01*
X13742Y16674D02*
X14076D01*
X13742D02*
X13845Y16777D01*
Y17300D01*
Y15300D02*
Y15823D01*
X13742Y15926D02*
X13845Y15823D01*
X12000Y15905D02*
X13055D01*
X13250Y16100D01*
Y16500D01*
X13076Y16674D02*
X13250Y16500D01*
X12758Y16674D02*
X13076D01*
X11905Y16000D02*
X12000Y15905D01*
X11000Y16000D02*
X11905D01*
X13400Y12000D02*
X14500D01*
D16*
X14800Y12300D01*
Y13700D01*
X15500Y14400D01*
X17600D01*
X23800D01*
X24750Y15350D01*
Y16000D01*
Y17000D01*
D17*
X17600Y14400D02*
D03*
X17601Y12627D02*
D03*
X19135Y13513D02*
D03*
X19134Y15286D02*
D03*
X17599Y16173D02*
D03*
X16065Y15287D02*
D03*
X16066Y13514D02*
D03*
D18*
X11000Y17000D02*
D03*
X10250Y14000D02*
D03*
X24750Y17000D02*
D03*
Y12000D02*
D03*
X11000D02*
D03*
D19*
Y16000D02*
D03*
X24750D02*
D03*
Y11000D02*
D03*
X11000D02*
D03*
D20*
X9250Y14000D02*
D03*
D21*
X12600Y14500D02*
D03*
D22*
X12806Y10594D02*
D03*
D23*
X9450Y16700D02*
D03*
Y11300D02*
D03*
X26300D02*
D03*
Y16700D02*
D03*
M02*
