%FSLAX24Y24*%
%MOIN*%
G70*
G01*
G75*
G04 Layer_Color=65535*
%ADD10R,0.0512X0.0217*%
%ADD11R,0.0197X0.0354*%
%ADD12R,0.0354X0.0197*%
%ADD13O,0.0118X0.0650*%
%ADD14C,0.0120*%
%ADD15C,0.0150*%
%ADD16C,0.0200*%
%ADD17C,0.1102*%
%ADD18C,0.0591*%
%ADD19R,0.0591X0.0591*%
%ADD20R,0.0591X0.0591*%
%ADD21C,0.0661*%
%ADD22C,0.0400*%
%ADD23C,0.1500*%
%ADD24R,0.0551X0.0472*%
%ADD25R,0.0669X0.0433*%
%ADD26R,0.0450X0.0700*%
%ADD27R,0.1161X0.0661*%
%ADD28R,0.1161X0.3902*%
%ADD29R,0.0700X0.0450*%
%ADD30C,0.0098*%
%ADD31C,0.0100*%
%ADD32C,0.0079*%
%ADD33C,0.0039*%
%ADD34C,0.0050*%
%ADD35C,0.0080*%
G36*
X20428Y11817D02*
X20331D01*
Y11436D01*
X20428D01*
Y11183D01*
X19954D01*
Y11436D01*
X20050D01*
Y11664D01*
X19811Y11335D01*
X19795D01*
X19560Y11664D01*
Y11436D01*
X19656D01*
Y11183D01*
X19182D01*
Y11436D01*
X19275D01*
Y11817D01*
X19182D01*
Y12070D01*
X19558D01*
X19799Y11737D01*
X19811D01*
X20052Y12070D01*
X20428D01*
Y11817D01*
D02*
G37*
D30*
X12886Y16950D02*
G03*
X12886Y16950I-49J0D01*
G01*
X12580Y11293D02*
G03*
X12580Y11293I-49J0D01*
G01*
D31*
X19372Y14400D02*
G03*
X19372Y14400I-1772J0D01*
G01*
D32*
X13388Y15690D02*
Y16910D01*
X13112Y15690D02*
Y16910D01*
Y15690D02*
X13388D01*
X13112Y16910D02*
X13388D01*
X12600Y11775D02*
X13800D01*
X12600Y12425D02*
X13800D01*
X12600Y11775D02*
Y12425D01*
X13800Y11775D02*
Y12425D01*
D33*
X13412Y17133D02*
X13688D01*
X13412Y17477D02*
X13688D01*
X11833Y16062D02*
Y16338D01*
X12177Y16062D02*
Y16338D01*
X13412Y15133D02*
X13688D01*
X13412Y15477D02*
X13688D01*
X12762Y13867D02*
X13038D01*
X12762Y13523D02*
X13038D01*
X12033Y13012D02*
Y13288D01*
X12377Y13012D02*
Y13288D01*
D34*
X10500Y15500D02*
X11500D01*
X10500Y17500D02*
X11500D01*
X10500Y15500D02*
Y17500D01*
X11500Y15500D02*
Y17500D01*
X8750Y13500D02*
Y14500D01*
X10750Y13500D02*
Y14500D01*
X8750D02*
X10750D01*
X8750Y13500D02*
X10750D01*
X24250Y15500D02*
X25250D01*
X24250Y17500D02*
X25250D01*
X24250Y15500D02*
Y17500D01*
X25250Y15500D02*
Y17500D01*
X24250Y10500D02*
X25250D01*
X24250Y12500D02*
X25250D01*
X24250Y10500D02*
Y12500D01*
X25250Y10500D02*
Y12500D01*
X10500Y10500D02*
X11500D01*
X10500Y12500D02*
X11500D01*
X10500Y10500D02*
Y12500D01*
X11500Y10500D02*
Y12500D01*
X13400Y10750D02*
Y10500D01*
X13450Y10450D01*
X13550D01*
X13600Y10500D01*
Y10750D01*
X13900Y10450D02*
X13700D01*
X13900Y10650D01*
Y10700D01*
X13850Y10750D01*
X13750D01*
X13700Y10700D01*
X12450Y15500D02*
Y15250D01*
X12500Y15200D01*
X12600D01*
X12650Y15250D01*
Y15500D01*
X12750Y15200D02*
X12850D01*
X12800D01*
Y15500D01*
X12750Y15450D01*
X11950Y13900D02*
X11900Y13950D01*
X11800D01*
X11750Y13900D01*
Y13700D01*
X11800Y13650D01*
X11900D01*
X11950Y13700D01*
X12250Y13950D02*
X12050D01*
Y13800D01*
X12150Y13850D01*
X12200D01*
X12250Y13800D01*
Y13700D01*
X12200Y13650D01*
X12100D01*
X12050Y13700D01*
X12300Y12400D02*
X12350Y12450D01*
Y12550D01*
X12300Y12600D01*
X12100D01*
X12050Y12550D01*
Y12450D01*
X12100Y12400D01*
X12050Y12150D02*
X12350D01*
X12200Y12300D01*
Y12100D01*
X13500Y14900D02*
X13450Y14950D01*
X13350D01*
X13300Y14900D01*
Y14700D01*
X13350Y14650D01*
X13450D01*
X13500Y14700D01*
X13600Y14900D02*
X13650Y14950D01*
X13750D01*
X13800Y14900D01*
Y14850D01*
X13750Y14800D01*
X13700D01*
X13750D01*
X13800Y14750D01*
Y14700D01*
X13750Y14650D01*
X13650D01*
X13600Y14700D01*
X12650Y17450D02*
X12600Y17500D01*
X12500D01*
X12450Y17450D01*
Y17250D01*
X12500Y17200D01*
X12600D01*
X12650Y17250D01*
X12950Y17200D02*
X12750D01*
X12950Y17400D01*
Y17450D01*
X12900Y17500D01*
X12800D01*
X12750Y17450D01*
X12100Y16950D02*
X12150Y17000D01*
Y17100D01*
X12100Y17150D01*
X11900D01*
X11850Y17100D01*
Y17000D01*
X11900Y16950D01*
X11850Y16850D02*
Y16750D01*
Y16800D01*
X12150D01*
X12100Y16850D01*
X9450Y15850D02*
Y15650D01*
X9550Y15550D01*
X9650Y15650D01*
Y15850D01*
X9750D02*
X9850D01*
X9800D01*
Y15550D01*
X9750D01*
X9850D01*
X10000D02*
Y15850D01*
X10200Y15550D01*
Y15850D01*
X9600Y12400D02*
X9550Y12450D01*
X9450D01*
X9400Y12400D01*
Y12200D01*
X9450Y12150D01*
X9550D01*
X9600Y12200D01*
Y12300D01*
X9500D01*
X9700Y12150D02*
Y12450D01*
X9900Y12150D01*
Y12450D01*
X10000D02*
Y12150D01*
X10150D01*
X10200Y12200D01*
Y12400D01*
X10150Y12450D01*
X10000D01*
X9500Y14950D02*
X9400D01*
X9350Y14900D01*
Y14700D01*
X9400Y14650D01*
X9500D01*
X9550Y14700D01*
Y14900D01*
X9500Y14950D01*
X9650D02*
Y14700D01*
X9700Y14650D01*
X9800D01*
X9850Y14700D01*
Y14950D01*
X9950D02*
X10150D01*
X10050D01*
Y14650D01*
X19450Y11000D02*
X19400Y11050D01*
X19300D01*
X19250Y11000D01*
Y10800D01*
X19300Y10750D01*
X19400D01*
X19450Y10800D01*
X19550Y10950D02*
Y10800D01*
X19600Y10750D01*
X19750D01*
Y10950D01*
X19850D02*
Y10750D01*
Y10850D01*
X19900Y10900D01*
X19950Y10950D01*
X20000D01*
X20150D02*
Y10750D01*
Y10850D01*
X20200Y10900D01*
X20250Y10950D01*
X20300D01*
X20600Y10750D02*
X20500D01*
X20450Y10800D01*
Y10900D01*
X20500Y10950D01*
X20600D01*
X20650Y10900D01*
Y10850D01*
X20450D01*
X20750Y10750D02*
Y10950D01*
X20899D01*
X20949Y10900D01*
Y10750D01*
X21099Y11000D02*
Y10950D01*
X21049D01*
X21149D01*
X21099D01*
Y10800D01*
X21149Y10750D01*
X21499Y11000D02*
X21449Y11050D01*
X21349D01*
X21299Y11000D01*
Y10950D01*
X21349Y10900D01*
X21449D01*
X21499Y10850D01*
Y10800D01*
X21449Y10750D01*
X21349D01*
X21299Y10800D01*
X21749Y10750D02*
X21649D01*
X21599Y10800D01*
Y10900D01*
X21649Y10950D01*
X21749D01*
X21799Y10900D01*
Y10850D01*
X21599D01*
X21899Y10750D02*
Y10950D01*
X22049D01*
X22099Y10900D01*
Y10750D01*
X22199D02*
X22349D01*
X22399Y10800D01*
X22349Y10850D01*
X22249D01*
X22199Y10900D01*
X22249Y10950D01*
X22399D01*
X22649Y10750D02*
X22549D01*
X22499Y10800D01*
Y10900D01*
X22549Y10950D01*
X22649D01*
X22699Y10900D01*
Y10850D01*
X22499D01*
X19250Y10600D02*
Y10300D01*
Y10400D01*
X19450Y10600D01*
X19300Y10450D01*
X19450Y10300D01*
X19550Y10500D02*
Y10350D01*
X19600Y10300D01*
X19750D01*
Y10500D01*
X19900Y10300D02*
X20000D01*
X20050Y10350D01*
Y10450D01*
X20000Y10500D01*
X19900D01*
X19850Y10450D01*
Y10350D01*
X19900Y10300D01*
X20200Y10250D02*
X20250Y10300D01*
Y10350D01*
X20200D01*
Y10300D01*
X20250D01*
X20200Y10250D01*
X20150Y10200D01*
X20750Y10300D02*
X20849D01*
X20800D01*
Y10600D01*
X20750Y10550D01*
X21199Y10300D02*
X20999D01*
X21199Y10500D01*
Y10550D01*
X21149Y10600D01*
X21049D01*
X20999Y10550D01*
X21299Y10300D02*
X21499Y10500D01*
X21599Y10550D02*
X21649Y10600D01*
X21749D01*
X21799Y10550D01*
Y10350D01*
X21749Y10300D01*
X21649D01*
X21599Y10350D01*
Y10550D01*
X22099Y10600D02*
X21999Y10550D01*
X21899Y10450D01*
Y10350D01*
X21949Y10300D01*
X22049D01*
X22099Y10350D01*
Y10400D01*
X22049Y10450D01*
X21899D01*
X22549Y10650D02*
Y10550D01*
X22499Y10500D01*
X22699Y10300D02*
X22799D01*
X22749D01*
Y10600D01*
X22699Y10550D01*
X22949D02*
X22999Y10600D01*
X23099D01*
X23149Y10550D01*
Y10500D01*
X23099Y10450D01*
X23049D01*
X23099D01*
X23149Y10400D01*
Y10350D01*
X23099Y10300D01*
X22999D01*
X22949Y10350D01*
X14550Y11850D02*
X14450Y11950D01*
Y12050D01*
X14550Y12150D01*
X14700Y12100D02*
X14750Y12150D01*
X14850D01*
X14900Y12100D01*
Y12050D01*
X14850Y12000D01*
X14800D01*
X14850D01*
X14900Y11950D01*
Y11900D01*
X14850Y11850D01*
X14750D01*
X14700Y11900D01*
X15000Y12100D02*
X15050Y12150D01*
X15150D01*
X15200Y12100D01*
Y11900D01*
X15150Y11850D01*
X15050D01*
X15000Y11900D01*
Y12100D01*
X15300D02*
X15350Y12150D01*
X15450D01*
X15500Y12100D01*
Y11900D01*
X15450Y11850D01*
X15350D01*
X15300Y11900D01*
Y12100D01*
X15600D02*
X15650Y12150D01*
X15750D01*
X15800Y12100D01*
Y11900D01*
X15750Y11850D01*
X15650D01*
X15600Y11900D01*
Y12100D01*
X15900Y11850D02*
X15999Y11950D01*
Y12050D01*
X15900Y12150D01*
X14700Y16100D02*
X14600Y16200D01*
Y16300D01*
X14700Y16400D01*
X14850Y16100D02*
X14950D01*
X14900D01*
Y16400D01*
X14850Y16350D01*
X15100D02*
X15150Y16400D01*
X15250D01*
X15300Y16350D01*
Y16150D01*
X15250Y16100D01*
X15150D01*
X15100Y16150D01*
Y16350D01*
X15400D02*
X15450Y16400D01*
X15550D01*
X15600Y16350D01*
Y16150D01*
X15550Y16100D01*
X15450D01*
X15400Y16150D01*
Y16350D01*
X15700D02*
X15750Y16400D01*
X15850D01*
X15900Y16350D01*
Y16150D01*
X15850Y16100D01*
X15750D01*
X15700Y16150D01*
Y16350D01*
X16000Y16100D02*
X16100Y16200D01*
Y16300D01*
X16000Y16400D01*
X18850Y17100D02*
X18750Y17200D01*
Y17300D01*
X18850Y17400D01*
X19000Y17100D02*
X19100D01*
X19050D01*
Y17400D01*
X19000Y17350D01*
X19250D02*
X19300Y17400D01*
X19400D01*
X19450Y17350D01*
Y17150D01*
X19400Y17100D01*
X19300D01*
X19250Y17150D01*
Y17350D01*
X19550D02*
X19600Y17400D01*
X19700D01*
X19750Y17350D01*
Y17150D01*
X19700Y17100D01*
X19600D01*
X19550Y17150D01*
Y17350D01*
X19850Y17100D02*
X19950Y17200D01*
Y17300D01*
X19850Y17400D01*
X20400Y15400D02*
X20300Y15500D01*
Y15600D01*
X20400Y15700D01*
X20750Y15400D02*
X20550D01*
X20750Y15600D01*
Y15650D01*
X20700Y15700D01*
X20600D01*
X20550Y15650D01*
X20850D02*
X20900Y15700D01*
X21000D01*
X21050Y15650D01*
Y15450D01*
X21000Y15400D01*
X20900D01*
X20850Y15450D01*
Y15650D01*
X21150Y15400D02*
X21250Y15500D01*
Y15600D01*
X21150Y15700D01*
X20600Y12600D02*
X20500Y12700D01*
Y12800D01*
X20600Y12900D01*
X20750Y12600D02*
X20850D01*
X20800D01*
Y12900D01*
X20750Y12850D01*
X21000D02*
X21050Y12900D01*
X21150D01*
X21200Y12850D01*
Y12650D01*
X21150Y12600D01*
X21050D01*
X21000Y12650D01*
Y12850D01*
X21300Y12600D02*
X21400Y12700D01*
Y12800D01*
X21300Y12900D01*
X17500Y10750D02*
X17400Y10850D01*
Y10950D01*
X17500Y11050D01*
X17850D02*
X17650D01*
Y10900D01*
X17750Y10950D01*
X17800D01*
X17850Y10900D01*
Y10800D01*
X17800Y10750D01*
X17700D01*
X17650Y10800D01*
X17950Y10750D02*
X18050Y10850D01*
Y10950D01*
X17950Y11050D01*
X16800Y13650D02*
X16900D01*
X16850D01*
Y13950D01*
X16800Y13900D01*
D35*
X14200Y12400D02*
X14360D01*
X14280D01*
Y12880D01*
X14200Y12800D01*
X14600D02*
X14680Y12880D01*
X14840D01*
X14920Y12800D01*
Y12480D01*
X14840Y12400D01*
X14680D01*
X14600Y12480D01*
Y12800D01*
X15080D02*
X15160Y12880D01*
X15320D01*
X15400Y12800D01*
Y12480D01*
X15320Y12400D01*
X15160D01*
X15080Y12480D01*
Y12800D01*
X15560Y12720D02*
Y12480D01*
X15640Y12400D01*
X15879D01*
Y12720D01*
X16039Y12400D02*
Y12720D01*
X16199Y12880D01*
X16359Y12720D01*
Y12400D01*
Y12640D01*
X16039D01*
X14700Y17000D02*
X14780Y17080D01*
X14940D01*
X15020Y17000D01*
Y16920D01*
X14940Y16840D01*
X14860D01*
X14940D01*
X15020Y16760D01*
Y16680D01*
X14940Y16600D01*
X14780D01*
X14700Y16680D01*
X15180Y16600D02*
Y16920D01*
X15260D01*
X15340Y16840D01*
Y16600D01*
Y16840D01*
X15420Y16920D01*
X15500Y16840D01*
Y16600D01*
X15660D02*
Y16920D01*
X15820Y17080D01*
X15980Y16920D01*
Y16600D01*
Y16840D01*
X15660D01*
X16800Y17400D02*
X16880Y17480D01*
X17040D01*
X17120Y17400D01*
Y17320D01*
X17040Y17240D01*
X16960D01*
X17040D01*
X17120Y17160D01*
Y17080D01*
X17040Y17000D01*
X16880D01*
X16800Y17080D01*
X17280Y17400D02*
X17360Y17480D01*
X17520D01*
X17600Y17400D01*
Y17080D01*
X17520Y17000D01*
X17360D01*
X17280Y17080D01*
Y17400D01*
X17760Y17000D02*
Y17320D01*
X17840D01*
X17920Y17240D01*
Y17000D01*
Y17240D01*
X18000Y17320D01*
X18080Y17240D01*
Y17000D01*
X18240D02*
Y17320D01*
X18399Y17480D01*
X18559Y17320D01*
Y17000D01*
Y17240D01*
X18240D01*
X19650Y15900D02*
X19810D01*
X19730D01*
Y16380D01*
X19650Y16300D01*
X20370Y16380D02*
X20050D01*
Y16140D01*
X20210Y16220D01*
X20290D01*
X20370Y16140D01*
Y15980D01*
X20290Y15900D01*
X20130D01*
X20050Y15980D01*
X20530Y16300D02*
X20610Y16380D01*
X20770D01*
X20850Y16300D01*
Y15980D01*
X20770Y15900D01*
X20610D01*
X20530Y15980D01*
Y16300D01*
X21010Y15900D02*
Y16220D01*
X21090D01*
X21170Y16140D01*
Y15900D01*
Y16140D01*
X21249Y16220D01*
X21329Y16140D01*
Y15900D01*
X21489D02*
Y16220D01*
X21649Y16380D01*
X21809Y16220D01*
Y15900D01*
Y16140D01*
X21489D01*
X19900Y13500D02*
X19980Y13580D01*
X20140D01*
X20220Y13500D01*
Y13420D01*
X20140Y13340D01*
X20060D01*
X20140D01*
X20220Y13260D01*
Y13180D01*
X20140Y13100D01*
X19980D01*
X19900Y13180D01*
X20380Y13500D02*
X20460Y13580D01*
X20620D01*
X20700Y13500D01*
Y13180D01*
X20620Y13100D01*
X20460D01*
X20380Y13180D01*
Y13500D01*
X20860D02*
X20940Y13580D01*
X21100D01*
X21180Y13500D01*
Y13180D01*
X21100Y13100D01*
X20940D01*
X20860Y13180D01*
Y13500D01*
X21340Y13100D02*
Y13420D01*
X21420D01*
X21499Y13340D01*
Y13100D01*
Y13340D01*
X21579Y13420D01*
X21659Y13340D01*
Y13100D01*
X21819D02*
Y13420D01*
X21979Y13580D01*
X22139Y13420D01*
Y13100D01*
Y13340D01*
X21819D01*
X16970Y11730D02*
X16810Y11650D01*
X16650Y11490D01*
Y11330D01*
X16730Y11250D01*
X16890D01*
X16970Y11330D01*
Y11410D01*
X16890Y11490D01*
X16650D01*
X17130Y11650D02*
X17210Y11730D01*
X17370D01*
X17450Y11650D01*
Y11330D01*
X17370Y11250D01*
X17210D01*
X17130Y11330D01*
Y11650D01*
X17610D02*
X17690Y11730D01*
X17850D01*
X17930Y11650D01*
Y11330D01*
X17850Y11250D01*
X17690D01*
X17610Y11330D01*
Y11650D01*
X18090Y11250D02*
Y11570D01*
X18170D01*
X18249Y11490D01*
Y11250D01*
Y11490D01*
X18329Y11570D01*
X18409Y11490D01*
Y11250D01*
X18569D02*
Y11570D01*
X18729Y11730D01*
X18889Y11570D01*
Y11250D01*
Y11490D01*
X18569D01*
X23900Y15330D02*
Y15010D01*
X24060Y14850D01*
X24220Y15010D01*
Y15330D01*
X24700Y15250D02*
X24620Y15330D01*
X24460D01*
X24380Y15250D01*
Y14930D01*
X24460Y14850D01*
X24620D01*
X24700Y14930D01*
X25180Y15250D02*
X25100Y15330D01*
X24940D01*
X24860Y15250D01*
Y14930D01*
X24940Y14850D01*
X25100D01*
X25180Y14930D01*
X24170Y13100D02*
X24090Y13180D01*
X23930D01*
X23850Y13100D01*
Y12780D01*
X23930Y12700D01*
X24090D01*
X24170Y12780D01*
Y12940D01*
X24010D01*
X24330Y12700D02*
Y13180D01*
X24650Y12700D01*
Y13180D01*
X24810D02*
Y12700D01*
X25050D01*
X25130Y12780D01*
Y13100D01*
X25050Y13180D01*
X24810D01*
X25050Y14630D02*
X25370D01*
X25210D01*
Y14150D01*
X25610D02*
X25770D01*
X25850Y14230D01*
Y14390D01*
X25770Y14470D01*
X25610D01*
X25530Y14390D01*
Y14230D01*
X25610Y14150D01*
X25200Y13880D02*
Y13400D01*
X25520D01*
X25760D02*
X25920D01*
X26000Y13480D01*
Y13640D01*
X25920Y13720D01*
X25760D01*
X25680Y13640D01*
Y13480D01*
X25760Y13400D01*
X26240Y13720D02*
X26400D01*
X26480Y13640D01*
Y13400D01*
X26240D01*
X26160Y13480D01*
X26240Y13560D01*
X26480D01*
X26959Y13880D02*
Y13400D01*
X26720D01*
X26640Y13480D01*
Y13640D01*
X26720Y13720D01*
X26959D01*
M02*
