%FSLAX24Y24*%
%MOIN*%
G70*
G01*
G75*
G04 Layer_Color=8388736*
%ADD10R,0.0512X0.0217*%
%ADD11R,0.0197X0.0354*%
%ADD12R,0.0354X0.0197*%
%ADD13O,0.0118X0.0650*%
%ADD14C,0.0120*%
%ADD15C,0.0150*%
%ADD16C,0.0200*%
%ADD17C,0.1102*%
%ADD18C,0.0591*%
%ADD19R,0.0591X0.0591*%
%ADD20R,0.0591X0.0591*%
%ADD21C,0.0661*%
%ADD22C,0.0400*%
%ADD23C,0.1500*%
%ADD24R,0.0551X0.0472*%
%ADD25R,0.0669X0.0433*%
%ADD26R,0.0450X0.0700*%
%ADD27R,0.1161X0.0661*%
%ADD28R,0.1161X0.3902*%
%ADD29R,0.0700X0.0450*%
%ADD30C,0.0098*%
%ADD31C,0.0100*%
%ADD32C,0.0079*%
%ADD33C,0.0039*%
%ADD34C,0.0050*%
%ADD35C,0.0080*%
%ADD36R,0.0572X0.0277*%
%ADD37R,0.0257X0.0414*%
%ADD38R,0.0414X0.0257*%
%ADD39O,0.0178X0.0710*%
%ADD40C,0.1162*%
%ADD41C,0.0651*%
%ADD42R,0.0651X0.0651*%
%ADD43R,0.0651X0.0651*%
%ADD44C,0.0721*%
%ADD45C,0.0460*%
%ADD46C,0.1560*%
D36*
X13742Y16674D02*
D03*
Y15926D02*
D03*
X12758D02*
D03*
Y16300D02*
D03*
Y16674D02*
D03*
D37*
X13255Y17300D02*
D03*
X13845D02*
D03*
X13255Y15300D02*
D03*
X13845D02*
D03*
X13195Y13700D02*
D03*
X12605D02*
D03*
D38*
X12000Y16495D02*
D03*
Y15905D02*
D03*
X12200Y13445D02*
D03*
Y12855D02*
D03*
D39*
X12806Y11293D02*
D03*
X13003D02*
D03*
X13200D02*
D03*
X13397D02*
D03*
X13594D02*
D03*
X12806Y12907D02*
D03*
X13003D02*
D03*
X13200D02*
D03*
X13397D02*
D03*
X13594D02*
D03*
D40*
X17600Y14400D02*
D03*
X17601Y12627D02*
D03*
X19135Y13513D02*
D03*
X19134Y15286D02*
D03*
X17599Y16173D02*
D03*
X16065Y15287D02*
D03*
X16066Y13514D02*
D03*
D41*
X11000Y17000D02*
D03*
X10250Y14000D02*
D03*
X24750Y17000D02*
D03*
Y12000D02*
D03*
X11000D02*
D03*
D42*
Y16000D02*
D03*
X24750D02*
D03*
Y11000D02*
D03*
X11000D02*
D03*
D43*
X9250Y14000D02*
D03*
D44*
X12600Y14500D02*
D03*
D45*
X12806Y10594D02*
D03*
D46*
X9450Y16700D02*
D03*
Y11300D02*
D03*
X26300D02*
D03*
Y16700D02*
D03*
M02*
