M48
;Layer_Color=9474304
;FILE_FORMAT=2:4
INCH,LZ
;TYPE=PLATED
T1F00S00C0.0200
T2F00S00C0.0354
T3F00S00C0.0472
T4F00S00C0.0728
T5F00S00C0.1250
%
T01
X012806Y010594
T02
X011Y011
Y012
X01025Y014
X00925
X02475Y012
Y011
Y016
Y017
X011
Y016
T03
X0126Y0145
T04
X016066Y013514
X016065Y015287
X0176Y0144
X017601Y012627
X019135Y013513
X019134Y015286
X017599Y016173
T05
X00945Y0113
X0263
Y0167
X00945
M30
