G04 Layer_Physical_Order=2*
G04 Layer_Color=16711680*
%FSLAX24Y24*%
%MOIN*%
G70*
G01*
G75*
%ADD14C,0.0200*%
%ADD15C,0.0120*%
%ADD17C,0.1102*%
%ADD18C,0.0591*%
%ADD19R,0.0591X0.0591*%
%ADD20R,0.0591X0.0591*%
%ADD21C,0.0661*%
%ADD22C,0.0400*%
%ADD23C,0.1500*%
%ADD24R,0.0433X0.0669*%
%ADD25R,0.0394X0.0591*%
%ADD26R,0.0591X0.0394*%
G36*
X12388Y112D02*
X112D01*
Y4443D01*
X162Y4445D01*
X162Y4444D01*
X197Y4329D01*
X254Y4223D01*
X330Y4130D01*
X423Y4054D01*
X530Y3997D01*
X601Y3975D01*
Y3629D01*
X395D01*
Y3116D01*
X1105D01*
Y3629D01*
X928D01*
Y3975D01*
X1000Y3997D01*
X1106Y4054D01*
X1199Y4130D01*
X1275Y4223D01*
X1332Y4329D01*
X1367Y4444D01*
X1379Y4564D01*
X1367Y4684D01*
X1332Y4799D01*
X1275Y4905D01*
X1199Y4998D01*
X1106Y5075D01*
X1000Y5132D01*
X884Y5167D01*
X765Y5178D01*
X645Y5167D01*
X530Y5132D01*
X423Y5075D01*
X330Y4998D01*
X254Y4905D01*
X197Y4799D01*
X162Y4684D01*
X162Y4683D01*
X112Y4686D01*
Y6214D01*
X162Y6217D01*
X162Y6216D01*
X197Y6101D01*
X254Y5995D01*
X330Y5902D01*
X423Y5825D01*
X530Y5768D01*
X645Y5733D01*
X765Y5722D01*
X884Y5733D01*
X1000Y5768D01*
X1106Y5825D01*
X1199Y5902D01*
X1275Y5995D01*
X1332Y6101D01*
X1367Y6216D01*
X1379Y6336D01*
X1367Y6456D01*
X1332Y6571D01*
X1275Y6677D01*
X1199Y6770D01*
X1106Y6846D01*
X1000Y6903D01*
X928Y6925D01*
Y7171D01*
X1105D01*
Y7684D01*
X395D01*
Y7171D01*
X601D01*
Y6925D01*
X530Y6903D01*
X423Y6846D01*
X330Y6770D01*
X254Y6677D01*
X197Y6571D01*
X162Y6456D01*
X162Y6455D01*
X112Y6457D01*
Y10588D01*
X799D01*
X807Y10538D01*
X689Y10502D01*
X548Y10427D01*
X424Y10326D01*
X323Y10202D01*
X248Y10061D01*
X202Y9909D01*
X186Y9750D01*
X202Y9591D01*
X248Y9439D01*
X323Y9298D01*
X424Y9174D01*
X548Y9073D01*
X689Y8998D01*
X841Y8952D01*
X1000Y8936D01*
X1159Y8952D01*
X1311Y8998D01*
X1452Y9073D01*
X1576Y9174D01*
X1677Y9298D01*
X1752Y9439D01*
X1798Y9591D01*
X1814Y9750D01*
X1798Y9909D01*
X1752Y10061D01*
X1677Y10202D01*
X1576Y10326D01*
X1452Y10427D01*
X1311Y10502D01*
X1193Y10538D01*
X1201Y10588D01*
X11299D01*
X11307Y10538D01*
X11189Y10502D01*
X11048Y10427D01*
X10924Y10326D01*
X10823Y10202D01*
X10748Y10061D01*
X10702Y9909D01*
X10686Y9750D01*
X10702Y9591D01*
X10748Y9439D01*
X10823Y9298D01*
X10924Y9174D01*
X11048Y9073D01*
X11189Y8998D01*
X11341Y8952D01*
X11500Y8936D01*
X11659Y8952D01*
X11811Y8998D01*
X11952Y9073D01*
X12076Y9174D01*
X12177Y9298D01*
X12252Y9439D01*
X12298Y9591D01*
X12314Y9750D01*
X12298Y9909D01*
X12252Y10061D01*
X12177Y10202D01*
X12076Y10326D01*
X11952Y10427D01*
X11811Y10502D01*
X11693Y10538D01*
X11701Y10588D01*
X12388D01*
Y112D01*
D02*
G37*
%LPC*%
G36*
X6291Y4935D02*
X6015D01*
Y4540D01*
X6291D01*
Y4935D01*
D02*
G37*
G36*
X2300Y6064D02*
X2180Y6052D01*
X2065Y6017D01*
X1959Y5961D01*
X1866Y5884D01*
X1789Y5791D01*
X1733Y5685D01*
X1698Y5570D01*
X1686Y5450D01*
X1698Y5330D01*
X1733Y5215D01*
X1789Y5109D01*
X1866Y5016D01*
X1959Y4939D01*
X2065Y4883D01*
X2180Y4848D01*
X2300Y4836D01*
X2420Y4848D01*
X2535Y4883D01*
X2641Y4939D01*
X2734Y5016D01*
X2811Y5109D01*
X2867Y5215D01*
X2902Y5330D01*
X2914Y5450D01*
X2902Y5570D01*
X2867Y5685D01*
X2811Y5791D01*
X2734Y5884D01*
X2641Y5961D01*
X2535Y6017D01*
X2420Y6052D01*
X2300Y6064D01*
D02*
G37*
G36*
X6648Y4935D02*
X6371D01*
Y4540D01*
X6648D01*
Y4935D01*
D02*
G37*
G36*
X3835Y5178D02*
X3716Y5167D01*
X3600Y5132D01*
X3494Y5075D01*
X3401Y4998D01*
X3325Y4905D01*
X3268Y4799D01*
X3233Y4684D01*
X3221Y4564D01*
X3233Y4444D01*
X3268Y4329D01*
X3325Y4223D01*
X3401Y4130D01*
X3494Y4054D01*
X3600Y3997D01*
X3716Y3962D01*
X3835Y3950D01*
X3955Y3962D01*
X4070Y3997D01*
X4177Y4054D01*
X4270Y4130D01*
X4346Y4223D01*
X4403Y4329D01*
X4425Y4401D01*
X4992D01*
Y4105D01*
X5545D01*
Y4895D01*
X4992D01*
Y4727D01*
X4425D01*
X4403Y4799D01*
X4346Y4905D01*
X4270Y4998D01*
X4177Y5075D01*
X4070Y5132D01*
X3955Y5167D01*
X3835Y5178D01*
D02*
G37*
G36*
X6648Y4460D02*
X6371D01*
Y4065D01*
X6648D01*
Y4460D01*
D02*
G37*
G36*
X11855Y4855D02*
X11145D01*
Y4145D01*
X11855D01*
Y4855D01*
D02*
G37*
G36*
X10500Y4858D02*
X10407Y4846D01*
X10321Y4810D01*
X10247Y4753D01*
X10190Y4679D01*
X10154Y4593D01*
X10142Y4500D01*
X10154Y4407D01*
X10190Y4321D01*
X10247Y4247D01*
X10321Y4190D01*
X10407Y4154D01*
X10500Y4142D01*
X10593Y4154D01*
X10679Y4190D01*
X10753Y4247D01*
X10810Y4321D01*
X10846Y4407D01*
X10858Y4500D01*
X10846Y4593D01*
X10810Y4679D01*
X10753Y4753D01*
X10679Y4810D01*
X10593Y4846D01*
X10500Y4858D01*
D02*
G37*
G36*
X11895Y6210D02*
X11540D01*
Y5855D01*
X11895D01*
Y6210D01*
D02*
G37*
G36*
X10460D02*
X10107D01*
X10115Y6147D01*
X10155Y6051D01*
X10218Y5968D01*
X10301Y5905D01*
X10397Y5865D01*
X10460Y5857D01*
Y6210D01*
D02*
G37*
G36*
X10893D02*
X10540D01*
Y5857D01*
X10603Y5865D01*
X10699Y5905D01*
X10782Y5968D01*
X10845Y6051D01*
X10885Y6147D01*
X10893Y6210D01*
D02*
G37*
G36*
X11460D02*
X11105D01*
Y5855D01*
X11460D01*
Y6210D01*
D02*
G37*
G36*
X7650Y6562D02*
X7582Y6553D01*
X7519Y6527D01*
X7465Y6485D01*
X7423Y6431D01*
X7397Y6368D01*
X7388Y6300D01*
X7397Y6232D01*
X7423Y6169D01*
X7465Y6115D01*
X7519Y6073D01*
X7528Y6069D01*
Y5351D01*
X7077Y4900D01*
X7068Y4903D01*
X7000Y4912D01*
X6932Y4903D01*
X6869Y4877D01*
X6815Y4835D01*
X6773Y4781D01*
X6747Y4718D01*
X6738Y4650D01*
X6747Y4582D01*
X6773Y4519D01*
X6815Y4465D01*
X6869Y4423D01*
X6932Y4397D01*
X7000Y4388D01*
X7068Y4397D01*
X7131Y4423D01*
X7185Y4465D01*
X7227Y4519D01*
X7253Y4582D01*
X7262Y4650D01*
X7253Y4718D01*
X7250Y4727D01*
X7737Y5213D01*
X7763Y5253D01*
X7772Y5300D01*
Y6069D01*
X7781Y6073D01*
X7835Y6115D01*
X7877Y6169D01*
X7903Y6232D01*
X7912Y6300D01*
X7903Y6368D01*
X7877Y6431D01*
X7835Y6485D01*
X7781Y6527D01*
X7718Y6553D01*
X7650Y6562D01*
D02*
G37*
G36*
X8960Y5960D02*
X8605D01*
Y5605D01*
X8960D01*
Y5960D01*
D02*
G37*
G36*
X9395D02*
X9040D01*
Y5605D01*
X9395D01*
Y5960D01*
D02*
G37*
G36*
X710Y2388D02*
X355D01*
Y2131D01*
X710D01*
Y2388D01*
D02*
G37*
G36*
X1145D02*
X790D01*
Y2131D01*
X1145D01*
Y2388D01*
D02*
G37*
G36*
X2300Y4292D02*
X2180Y4281D01*
X2065Y4246D01*
X1959Y4189D01*
X1866Y4113D01*
X1789Y4020D01*
X1733Y3913D01*
X1698Y3798D01*
X1686Y3678D01*
X1698Y3559D01*
X1733Y3443D01*
X1789Y3337D01*
X1866Y3244D01*
X1959Y3168D01*
X2065Y3111D01*
X2137Y3089D01*
Y2855D01*
X2071D01*
Y2145D01*
X2584D01*
Y2855D01*
X2463D01*
Y3089D01*
X2535Y3111D01*
X2641Y3168D01*
X2734Y3244D01*
X2811Y3337D01*
X2867Y3443D01*
X2902Y3559D01*
X2914Y3678D01*
X2902Y3798D01*
X2867Y3913D01*
X2811Y4020D01*
X2734Y4113D01*
X2641Y4189D01*
X2535Y4246D01*
X2420Y4281D01*
X2300Y4292D01*
D02*
G37*
G36*
X3569Y2460D02*
X3312D01*
Y2105D01*
X3569D01*
Y2460D01*
D02*
G37*
G36*
X1000Y1814D02*
X841Y1798D01*
X689Y1752D01*
X548Y1677D01*
X424Y1576D01*
X323Y1452D01*
X248Y1311D01*
X202Y1159D01*
X186Y1000D01*
X202Y841D01*
X248Y689D01*
X323Y548D01*
X424Y424D01*
X548Y323D01*
X689Y248D01*
X841Y202D01*
X1000Y186D01*
X1159Y202D01*
X1311Y248D01*
X1452Y323D01*
X1576Y424D01*
X1677Y548D01*
X1752Y689D01*
X1798Y841D01*
X1814Y1000D01*
X1798Y1159D01*
X1752Y1311D01*
X1677Y1452D01*
X1576Y1576D01*
X1452Y1677D01*
X1311Y1752D01*
X1159Y1798D01*
X1000Y1814D01*
D02*
G37*
G36*
X11500D02*
X11341Y1798D01*
X11189Y1752D01*
X11048Y1677D01*
X10924Y1576D01*
X10823Y1452D01*
X10748Y1311D01*
X10702Y1159D01*
X10686Y1000D01*
X10702Y841D01*
X10748Y689D01*
X10823Y548D01*
X10924Y424D01*
X11048Y323D01*
X11189Y248D01*
X11341Y202D01*
X11500Y186D01*
X11659Y202D01*
X11811Y248D01*
X11952Y323D01*
X12076Y424D01*
X12177Y548D01*
X12252Y689D01*
X12298Y841D01*
X12314Y1000D01*
X12298Y1159D01*
X12252Y1311D01*
X12177Y1452D01*
X12076Y1576D01*
X11952Y1677D01*
X11811Y1752D01*
X11659Y1798D01*
X11500Y1814D01*
D02*
G37*
G36*
X3232Y2460D02*
X2976D01*
Y2105D01*
X3232D01*
Y2460D01*
D02*
G37*
G36*
Y2895D02*
X2976D01*
Y2540D01*
X3232D01*
Y2895D01*
D02*
G37*
G36*
X3569D02*
X3312D01*
Y2540D01*
X3569D01*
Y2895D01*
D02*
G37*
G36*
X6291Y4460D02*
X6015D01*
Y4065D01*
X6291D01*
Y4460D01*
D02*
G37*
G36*
X1145Y2724D02*
X790D01*
Y2468D01*
X1145D01*
Y2724D01*
D02*
G37*
G36*
X10500Y3108D02*
X10407Y3096D01*
X10321Y3060D01*
X10247Y3003D01*
X10190Y2929D01*
X10154Y2843D01*
X10142Y2750D01*
X10154Y2657D01*
X10190Y2571D01*
X10247Y2497D01*
X10321Y2440D01*
X10407Y2404D01*
X10500Y2392D01*
X10593Y2404D01*
X10679Y2440D01*
X10753Y2497D01*
X10810Y2571D01*
X10846Y2657D01*
X10858Y2750D01*
X10846Y2843D01*
X10810Y2929D01*
X10753Y3003D01*
X10679Y3060D01*
X10593Y3096D01*
X10500Y3108D01*
D02*
G37*
G36*
X11855Y3105D02*
X11145D01*
Y2395D01*
X11855D01*
Y3105D01*
D02*
G37*
G36*
X710Y2724D02*
X355D01*
Y2468D01*
X710D01*
Y2724D01*
D02*
G37*
G36*
X6291Y6260D02*
X6015D01*
Y5865D01*
X6291D01*
Y6260D01*
D02*
G37*
G36*
X1145Y8332D02*
X790D01*
Y8076D01*
X1145D01*
Y8332D01*
D02*
G37*
G36*
X710Y8669D02*
X355D01*
Y8412D01*
X710D01*
Y8669D01*
D02*
G37*
G36*
X1145D02*
X790D01*
Y8412D01*
X1145D01*
Y8669D01*
D02*
G37*
G36*
X710Y8332D02*
X355D01*
Y8076D01*
X710D01*
Y8332D01*
D02*
G37*
G36*
X11855Y8355D02*
X11145D01*
Y7645D01*
X11855D01*
Y8355D01*
D02*
G37*
G36*
X3291Y8360D02*
X3015D01*
Y7965D01*
X3291D01*
Y8360D01*
D02*
G37*
G36*
X3648D02*
X3372D01*
Y7965D01*
X3648D01*
Y8360D01*
D02*
G37*
G36*
X8750Y10108D02*
X8657Y10096D01*
X8571Y10060D01*
X8497Y10003D01*
X8440Y9929D01*
X8404Y9843D01*
X8392Y9750D01*
X8404Y9657D01*
X8440Y9571D01*
X8497Y9497D01*
X8571Y9440D01*
X8657Y9404D01*
X8750Y9392D01*
X8843Y9404D01*
X8929Y9440D01*
X9003Y9497D01*
X9060Y9571D01*
X9096Y9657D01*
X9108Y9750D01*
X9096Y9843D01*
X9060Y9929D01*
X9003Y10003D01*
X8929Y10060D01*
X8843Y10096D01*
X8750Y10108D01*
D02*
G37*
G36*
X5355Y10105D02*
X4645D01*
Y9395D01*
X5355D01*
Y10105D01*
D02*
G37*
G36*
X10105D02*
X9395D01*
Y9395D01*
X10105D01*
Y10105D01*
D02*
G37*
G36*
X4000Y10108D02*
X3907Y10096D01*
X3821Y10060D01*
X3747Y10003D01*
X3690Y9929D01*
X3654Y9843D01*
X3642Y9750D01*
X3654Y9657D01*
X3690Y9571D01*
X3747Y9497D01*
X3821Y9440D01*
X3907Y9404D01*
X4000Y9392D01*
X4093Y9404D01*
X4179Y9440D01*
X4253Y9497D01*
X4310Y9571D01*
X4346Y9657D01*
X4358Y9750D01*
X4346Y9843D01*
X4310Y9929D01*
X4253Y10003D01*
X4179Y10060D01*
X4093Y10096D01*
X4000Y10108D01*
D02*
G37*
G36*
X3291Y8835D02*
X3015D01*
Y8440D01*
X3291D01*
Y8835D01*
D02*
G37*
G36*
X3648D02*
X3372D01*
Y8440D01*
X3648D01*
Y8835D01*
D02*
G37*
G36*
X2750Y10144D02*
X2648Y10131D01*
X2553Y10091D01*
X2471Y10029D01*
X2409Y9947D01*
X2369Y9852D01*
X2356Y9750D01*
X2369Y9648D01*
X2409Y9553D01*
X2471Y9471D01*
X2553Y9409D01*
X2648Y9369D01*
X2750Y9356D01*
X2852Y9369D01*
X2947Y9409D01*
X3029Y9471D01*
X3091Y9553D01*
X3131Y9648D01*
X3144Y9750D01*
X3131Y9852D01*
X3091Y9947D01*
X3029Y10029D01*
X2947Y10091D01*
X2852Y10131D01*
X2750Y10144D01*
D02*
G37*
G36*
X11460Y6645D02*
X11105D01*
Y6290D01*
X11460D01*
Y6645D01*
D02*
G37*
G36*
X10460Y6643D02*
X10397Y6635D01*
X10301Y6595D01*
X10218Y6532D01*
X10155Y6449D01*
X10115Y6353D01*
X10107Y6290D01*
X10460D01*
Y6643D01*
D02*
G37*
G36*
X10540D02*
Y6290D01*
X10893D01*
X10885Y6353D01*
X10845Y6449D01*
X10782Y6532D01*
X10699Y6595D01*
X10603Y6635D01*
X10540Y6643D01*
D02*
G37*
G36*
X9395Y6395D02*
X9040D01*
Y6040D01*
X9395D01*
Y6395D01*
D02*
G37*
G36*
X6648Y6260D02*
X6371D01*
Y5865D01*
X6648D01*
Y6260D01*
D02*
G37*
G36*
X3835Y6950D02*
X3716Y6938D01*
X3600Y6903D01*
X3494Y6846D01*
X3401Y6770D01*
X3325Y6677D01*
X3268Y6571D01*
X3233Y6456D01*
X3221Y6336D01*
X3233Y6216D01*
X3268Y6101D01*
X3325Y5995D01*
X3401Y5902D01*
X3494Y5825D01*
X3600Y5768D01*
X3716Y5733D01*
X3835Y5722D01*
X3955Y5733D01*
X4070Y5768D01*
X4177Y5825D01*
X4270Y5902D01*
X4346Y5995D01*
X4403Y6101D01*
X4425Y6173D01*
X4992D01*
Y5905D01*
X5545D01*
Y6695D01*
X4992D01*
Y6499D01*
X4425D01*
X4403Y6571D01*
X4346Y6677D01*
X4270Y6770D01*
X4177Y6846D01*
X4070Y6903D01*
X3955Y6938D01*
X3835Y6950D01*
D02*
G37*
G36*
X8960Y6395D02*
X8605D01*
Y6040D01*
X8960D01*
Y6395D01*
D02*
G37*
G36*
X9000Y7358D02*
X8907Y7346D01*
X8821Y7310D01*
X8747Y7253D01*
X8690Y7179D01*
X8654Y7093D01*
X8642Y7000D01*
X8654Y6907D01*
X8690Y6821D01*
X8747Y6747D01*
X8821Y6690D01*
X8907Y6654D01*
X9000Y6642D01*
X9093Y6654D01*
X9179Y6690D01*
X9253Y6747D01*
X9310Y6821D01*
X9346Y6907D01*
X9358Y7000D01*
X9346Y7093D01*
X9310Y7179D01*
X9253Y7253D01*
X9179Y7310D01*
X9093Y7346D01*
X9000Y7358D01*
D02*
G37*
G36*
Y8358D02*
X8907Y8346D01*
X8821Y8310D01*
X8747Y8253D01*
X8690Y8179D01*
X8654Y8093D01*
X8642Y8000D01*
X8654Y7907D01*
X8690Y7821D01*
X8747Y7747D01*
X8821Y7690D01*
X8907Y7654D01*
X9000Y7642D01*
X9093Y7654D01*
X9179Y7690D01*
X9253Y7747D01*
X9310Y7821D01*
X9346Y7907D01*
X9358Y8000D01*
X9346Y8093D01*
X9310Y8179D01*
X9253Y8253D01*
X9179Y8310D01*
X9093Y8346D01*
X9000Y8358D01*
D02*
G37*
G36*
X10500D02*
X10407Y8346D01*
X10321Y8310D01*
X10247Y8253D01*
X10190Y8179D01*
X10154Y8093D01*
X10142Y8000D01*
X10154Y7907D01*
X10190Y7821D01*
X10247Y7747D01*
X10321Y7690D01*
X10407Y7654D01*
X10500Y7642D01*
X10593Y7654D01*
X10679Y7690D01*
X10753Y7747D01*
X10810Y7821D01*
X10846Y7907D01*
X10858Y8000D01*
X10846Y8093D01*
X10810Y8179D01*
X10753Y8253D01*
X10679Y8310D01*
X10593Y8346D01*
X10500Y8358D01*
D02*
G37*
G36*
X2545Y8795D02*
X1992D01*
Y8005D01*
X2137D01*
Y7811D01*
X2065Y7789D01*
X1959Y7732D01*
X1866Y7656D01*
X1789Y7563D01*
X1733Y7457D01*
X1698Y7341D01*
X1686Y7222D01*
X1698Y7102D01*
X1733Y6987D01*
X1789Y6880D01*
X1866Y6787D01*
X1959Y6711D01*
X2065Y6654D01*
X2180Y6619D01*
X2300Y6608D01*
X2420Y6619D01*
X2535Y6654D01*
X2641Y6711D01*
X2734Y6787D01*
X2811Y6880D01*
X2867Y6987D01*
X2902Y7102D01*
X2914Y7222D01*
X2902Y7341D01*
X2867Y7457D01*
X2811Y7563D01*
X2734Y7656D01*
X2641Y7732D01*
X2535Y7789D01*
X2463Y7811D01*
Y8005D01*
X2545D01*
Y8795D01*
D02*
G37*
G36*
X11895Y6645D02*
X11540D01*
Y6290D01*
X11895D01*
Y6645D01*
D02*
G37*
G36*
X6291Y6735D02*
X6015D01*
Y6340D01*
X6291D01*
Y6735D01*
D02*
G37*
G36*
X6648D02*
X6371D01*
Y6340D01*
X6648D01*
Y6735D01*
D02*
G37*
%LPD*%
D14*
X5204Y4564D02*
X5268Y4500D01*
X3835Y4564D02*
X5204D01*
X5233Y6336D02*
X5268Y6300D01*
X3835Y6336D02*
X5233D01*
X2269Y8400D02*
X2300Y8368D01*
Y7222D02*
Y8368D01*
Y2528D02*
X2328Y2500D01*
X2300Y2528D02*
Y3678D01*
X750Y3372D02*
X765Y3387D01*
Y4564D01*
X750Y7428D02*
X765Y7413D01*
Y6336D02*
Y7413D01*
D15*
X7650Y5300D02*
Y6300D01*
X7000Y4650D02*
X7650Y5300D01*
D17*
X2300Y5450D02*
D03*
X3835Y4564D02*
D03*
Y6336D02*
D03*
X2300Y7222D02*
D03*
X765Y6336D02*
D03*
Y4564D02*
D03*
X2300Y3678D02*
D03*
D18*
X10500Y4500D02*
D03*
Y2750D02*
D03*
X8750Y9750D02*
D03*
X4000D02*
D03*
X10500Y8000D02*
D03*
X9000D02*
D03*
Y7000D02*
D03*
X10500Y6250D02*
D03*
D19*
X11500Y4500D02*
D03*
Y2750D02*
D03*
X9750Y9750D02*
D03*
X5000D02*
D03*
X11500Y8000D02*
D03*
Y6250D02*
D03*
D20*
X9000Y6000D02*
D03*
D21*
X2750Y9750D02*
D03*
D22*
X7650Y6300D02*
D03*
X7000Y4650D02*
D03*
D23*
X11500Y1000D02*
D03*
Y9750D02*
D03*
X1000D02*
D03*
Y1000D02*
D03*
D24*
X6331Y4500D02*
D03*
X5268D02*
D03*
X3331Y8400D02*
D03*
X2269D02*
D03*
X6331Y6300D02*
D03*
X5268D02*
D03*
D25*
X3272Y2500D02*
D03*
X2328D02*
D03*
D26*
X750Y2428D02*
D03*
Y3372D02*
D03*
Y8372D02*
D03*
Y7428D02*
D03*
M02*
