G04 Layer_Color=32896*
%FSLAX24Y24*%
%MOIN*%
G70*
G01*
G75*
%ADD29C,0.0050*%
%ADD30C,0.0079*%
D29*
X3650Y1650D02*
Y1950D01*
X3500D01*
X3450Y1900D01*
Y1800D01*
X3500Y1750D01*
X3650D01*
X3550D02*
X3450Y1650D01*
X3350Y1900D02*
X3300Y1950D01*
X3200D01*
X3150Y1900D01*
Y1850D01*
X3200Y1800D01*
X3150Y1750D01*
Y1700D01*
X3200Y1650D01*
X3300D01*
X3350Y1700D01*
Y1750D01*
X3300Y1800D01*
X3350Y1850D01*
Y1900D01*
X3300Y1800D02*
X3200D01*
X1750Y2800D02*
Y3100D01*
X1600D01*
X1550Y3050D01*
Y2950D01*
X1600Y2900D01*
X1750D01*
X1650D02*
X1550Y2800D01*
X1250Y3100D02*
X1350Y3050D01*
X1450Y2950D01*
Y2850D01*
X1400Y2800D01*
X1300D01*
X1250Y2850D01*
Y2900D01*
X1300Y2950D01*
X1450D01*
X1750Y8000D02*
Y8300D01*
X1600D01*
X1550Y8250D01*
Y8150D01*
X1600Y8100D01*
X1750D01*
X1650D02*
X1550Y8000D01*
X1250Y8300D02*
X1450D01*
Y8150D01*
X1350Y8200D01*
X1300D01*
X1250Y8150D01*
Y8050D01*
X1300Y8000D01*
X1400D01*
X1450Y8050D01*
X4300Y8150D02*
Y8450D01*
X4150D01*
X4100Y8400D01*
Y8300D01*
X4150Y8250D01*
X4300D01*
X4200D02*
X4100Y8150D01*
X4000Y8400D02*
X3950Y8450D01*
X3850D01*
X3800Y8400D01*
Y8350D01*
X3850Y8300D01*
X3900D01*
X3850D01*
X3800Y8250D01*
Y8200D01*
X3850Y8150D01*
X3950D01*
X4000Y8200D01*
X6600Y5400D02*
Y5700D01*
X6450D01*
X6400Y5650D01*
Y5550D01*
X6450Y5500D01*
X6600D01*
X6500D02*
X6400Y5400D01*
X6100D02*
X6300D01*
X6100Y5600D01*
Y5650D01*
X6150Y5700D01*
X6250D01*
X6300Y5650D01*
X6500Y3550D02*
Y3850D01*
X6350D01*
X6300Y3800D01*
Y3700D01*
X6350Y3650D01*
X6500D01*
X6400D02*
X6300Y3550D01*
X6200D02*
X6100D01*
X6150D01*
Y3850D01*
X6200Y3800D01*
X5800D02*
X5750Y3850D01*
X5650D01*
X5600Y3800D01*
Y3600D01*
X5650Y3550D01*
X5750D01*
X5800Y3600D01*
Y3800D01*
X5500Y3550D02*
Y3600D01*
X5450D01*
Y3550D01*
X5500D01*
X5250D02*
X5150D01*
X5200D01*
Y3850D01*
X5250Y3800D01*
X4800Y3550D02*
X5000D01*
X4800Y3750D01*
Y3800D01*
X4850Y3850D01*
X4950D01*
X5000Y3800D01*
X5800Y5650D02*
X5750Y5700D01*
X5650D01*
X5600Y5650D01*
Y5450D01*
X5650Y5400D01*
X5750D01*
X5800Y5450D01*
Y5650D01*
X5500Y5400D02*
Y5450D01*
X5450D01*
Y5400D01*
X5500D01*
X5050D02*
X5250D01*
X5050Y5600D01*
Y5650D01*
X5100Y5700D01*
X5200D01*
X5250Y5650D01*
X3650Y7750D02*
X3600Y7800D01*
X3500D01*
X3450Y7750D01*
Y7550D01*
X3500Y7500D01*
X3600D01*
X3650Y7550D01*
Y7750D01*
X3350Y7500D02*
Y7550D01*
X3300D01*
Y7500D01*
X3350D01*
X2950D02*
Y7800D01*
X3100Y7650D01*
X2900D01*
X1250Y7050D02*
Y7150D01*
Y7100D01*
X1550D01*
X1500Y7050D01*
X1250Y7300D02*
X1300D01*
Y7350D01*
X1250D01*
Y7300D01*
Y7750D02*
Y7550D01*
X1450Y7750D01*
X1500D01*
X1550Y7700D01*
Y7600D01*
X1500Y7550D01*
X1700Y2300D02*
X1600D01*
X1650D01*
Y2600D01*
X1700Y2550D01*
X1250Y2300D02*
X1450D01*
X1250Y2500D01*
Y2550D01*
X1300Y2600D01*
X1400D01*
X1450Y2550D01*
X2800Y1650D02*
X2700D01*
X2750D01*
Y1950D01*
X2800Y1900D01*
X2350Y1650D02*
X2550D01*
X2350Y1850D01*
Y1900D01*
X2400Y1950D01*
X2500D01*
X2550Y1900D01*
X2250D02*
X2200Y1950D01*
X2100D01*
X2050Y1900D01*
Y1700D01*
X2100Y1650D01*
X2200D01*
X2250Y1700D01*
Y1900D01*
D30*
X5643Y4795D02*
X5957D01*
X5643Y4205D02*
X5957D01*
X2603Y2776D02*
X2997D01*
X2603Y2224D02*
X2997D01*
X1026Y2703D02*
Y3097D01*
X474Y2703D02*
Y3097D01*
X2643Y8695D02*
X2957D01*
X2643Y8105D02*
X2957D01*
X474Y7703D02*
Y8097D01*
X1026Y7703D02*
Y8097D01*
X5643Y6595D02*
X5957D01*
X5643Y6005D02*
X5957D01*
M02*
