G04 Layer_Color=65535*
%FSLAX24Y24*%
%MOIN*%
G70*
G01*
G75*
%ADD27C,0.0100*%
%ADD28C,0.0098*%
%ADD29C,0.0050*%
%ADD30C,0.0079*%
%ADD31C,0.0039*%
D27*
X4072Y5450D02*
G03*
X4072Y5450I-1772J0D01*
G01*
D28*
X5392Y6069D02*
G03*
X5392Y6069I-49J0D01*
G01*
X7249Y8613D02*
G03*
X7249Y8613I-49J0D01*
G01*
D29*
X12000Y4000D02*
Y5000D01*
X10000Y4000D02*
Y5000D01*
Y4000D02*
X12000D01*
X10000Y5000D02*
X12000D01*
Y2250D02*
Y3250D01*
X10000Y2250D02*
Y3250D01*
Y2250D02*
X12000D01*
X10000Y3250D02*
X12000D01*
X10250Y9250D02*
Y10250D01*
X8250Y9250D02*
Y10250D01*
Y9250D02*
X10250D01*
X8250Y10250D02*
X10250D01*
X5500Y9250D02*
Y10250D01*
X3500Y9250D02*
Y10250D01*
Y9250D02*
X5500D01*
X3500Y10250D02*
X5500D01*
X12000Y7500D02*
Y8500D01*
X10000Y7500D02*
Y8500D01*
Y7500D02*
X12000D01*
X10000Y8500D02*
X12000D01*
X8500Y5500D02*
X9500D01*
X8500Y8500D02*
X9500D01*
X8500Y5500D02*
Y8500D01*
X9500Y5500D02*
Y8500D01*
X12000Y5750D02*
Y6750D01*
X10000Y5750D02*
Y6750D01*
Y5750D02*
X12000D01*
X10000Y6750D02*
X12000D01*
X5950Y4550D02*
Y4300D01*
X6000Y4250D01*
X6100D01*
X6150Y4300D01*
Y4550D01*
X6450Y4250D02*
X6250D01*
X6450Y4450D01*
Y4500D01*
X6400Y4550D01*
X6300D01*
X6250Y4500D01*
X6350Y9450D02*
Y9200D01*
X6400Y9150D01*
X6500D01*
X6550Y9200D01*
Y9450D01*
X6650Y9150D02*
X6750D01*
X6700D01*
Y9450D01*
X6650Y9400D01*
X7650Y4450D02*
Y4750D01*
X7800D01*
X7850Y4700D01*
Y4600D01*
X7800Y4550D01*
X7650D01*
X7750D02*
X7850Y4450D01*
X7950Y4750D02*
X8150D01*
Y4700D01*
X7950Y4500D01*
Y4450D01*
X7900Y6050D02*
Y6350D01*
X8050D01*
X8100Y6300D01*
Y6200D01*
X8050Y6150D01*
X7900D01*
X8000D02*
X8100Y6050D01*
X8350D02*
Y6350D01*
X8200Y6200D01*
X8400D01*
X5750Y6550D02*
X5700Y6600D01*
X5600D01*
X5550Y6550D01*
Y6350D01*
X5600Y6300D01*
X5700D01*
X5750Y6350D01*
X6000Y6300D02*
Y6600D01*
X5850Y6450D01*
X6050D01*
X5550Y8750D02*
X5500Y8800D01*
X5400D01*
X5350Y8750D01*
Y8550D01*
X5400Y8500D01*
X5500D01*
X5550Y8550D01*
X5650Y8750D02*
X5700Y8800D01*
X5800D01*
X5850Y8750D01*
Y8700D01*
X5800Y8650D01*
X5750D01*
X5800D01*
X5850Y8600D01*
Y8550D01*
X5800Y8500D01*
X5700D01*
X5650Y8550D01*
X5750Y7150D02*
X5700Y7200D01*
X5600D01*
X5550Y7150D01*
Y6950D01*
X5600Y6900D01*
X5700D01*
X5750Y6950D01*
X6050Y6900D02*
X5850D01*
X6050Y7100D01*
Y7150D01*
X6000Y7200D01*
X5900D01*
X5850Y7150D01*
X7600Y7900D02*
X7550Y7950D01*
X7450D01*
X7400Y7900D01*
Y7700D01*
X7450Y7650D01*
X7550D01*
X7600Y7700D01*
X7700Y7650D02*
X7800D01*
X7750D01*
Y7950D01*
X7700Y7900D01*
X8800Y9000D02*
X8600D01*
Y8700D01*
X8800D01*
X8600Y8850D02*
X8700D01*
X8900Y9000D02*
X9100Y8700D01*
Y9000D02*
X8900Y8700D01*
X9200Y9000D02*
X9400D01*
X9300D01*
Y8700D01*
X8650Y5300D02*
Y5100D01*
X8750Y5000D01*
X8850Y5100D01*
Y5300D01*
X8950D02*
X9050D01*
X9000D01*
Y5000D01*
X8950D01*
X9050D01*
X9200D02*
Y5300D01*
X9400Y5000D01*
Y5300D01*
X10600Y5650D02*
Y5450D01*
X10700Y5350D01*
X10800Y5450D01*
Y5650D01*
X10900D02*
X11000D01*
X10950D01*
Y5350D01*
X10900D01*
X11000D01*
X11150D02*
Y5650D01*
X11350Y5350D01*
Y5650D01*
X10550Y3850D02*
Y3650D01*
X10650Y3550D01*
X10750Y3650D01*
Y3850D01*
X11050Y3800D02*
X11000Y3850D01*
X10900D01*
X10850Y3800D01*
Y3600D01*
X10900Y3550D01*
X11000D01*
X11050Y3600D01*
X11350Y3800D02*
X11300Y3850D01*
X11200D01*
X11150Y3800D01*
Y3600D01*
X11200Y3550D01*
X11300D01*
X11350Y3600D01*
X10850Y2050D02*
X10800Y2100D01*
X10700D01*
X10650Y2050D01*
Y1850D01*
X10700Y1800D01*
X10800D01*
X10850Y1850D01*
Y1950D01*
X10750D01*
X10950Y1800D02*
Y2100D01*
X11150Y1800D01*
Y2100D01*
X11250D02*
Y1800D01*
X11400D01*
X11450Y1850D01*
Y2050D01*
X11400Y2100D01*
X11250D01*
X10800Y7400D02*
X10600D01*
Y7100D01*
X10800D01*
X10600Y7250D02*
X10700D01*
X10900Y7400D02*
X11100Y7100D01*
Y7400D02*
X10900Y7100D01*
X11200Y7400D02*
X11400D01*
X11300D01*
Y7100D01*
X8850Y3750D02*
Y3450D01*
X9050D01*
X9200D02*
X9300D01*
X9350Y3500D01*
Y3600D01*
X9300Y3650D01*
X9200D01*
X9150Y3600D01*
Y3500D01*
X9200Y3450D01*
X9500Y3650D02*
X9600D01*
X9650Y3600D01*
Y3450D01*
X9500D01*
X9450Y3500D01*
X9500Y3550D01*
X9650D01*
X9950Y3750D02*
Y3450D01*
X9800D01*
X9750Y3500D01*
Y3600D01*
X9800Y3650D01*
X9950D01*
X7450Y9850D02*
X7400Y9900D01*
X7300D01*
X7250Y9850D01*
Y9650D01*
X7300Y9600D01*
X7400D01*
X7450Y9650D01*
Y9750D01*
X7350D01*
X7550Y9600D02*
Y9900D01*
X7750Y9600D01*
Y9900D01*
X7850D02*
Y9600D01*
X8000D01*
X8050Y9650D01*
Y9850D01*
X8000Y9900D01*
X7850D01*
X5700D02*
X5800D01*
X5750D01*
Y9600D01*
X5700D01*
X5800D01*
X6000D02*
X6100D01*
X6150Y9650D01*
Y9750D01*
X6100Y9800D01*
X6000D01*
X5950Y9750D01*
Y9650D01*
X6000Y9600D01*
X6250Y9800D02*
Y9650D01*
X6300Y9600D01*
X6450D01*
Y9800D01*
X6600Y9850D02*
Y9800D01*
X6550D01*
X6650D01*
X6600D01*
Y9650D01*
X6650Y9600D01*
X5700Y1100D02*
X5650Y1150D01*
X5550D01*
X5500Y1100D01*
Y900D01*
X5550Y850D01*
X5650D01*
X5700Y900D01*
X5800Y1050D02*
Y900D01*
X5850Y850D01*
X6000D01*
Y1050D01*
X6100D02*
Y850D01*
Y950D01*
X6150Y1000D01*
X6200Y1050D01*
X6250D01*
X6400D02*
Y850D01*
Y950D01*
X6450Y1000D01*
X6500Y1050D01*
X6550D01*
X6850Y850D02*
X6750D01*
X6700Y900D01*
Y1000D01*
X6750Y1050D01*
X6850D01*
X6900Y1000D01*
Y950D01*
X6700D01*
X7000Y850D02*
Y1050D01*
X7149D01*
X7199Y1000D01*
Y850D01*
X7349Y1100D02*
Y1050D01*
X7299D01*
X7399D01*
X7349D01*
Y900D01*
X7399Y850D01*
X8049Y1100D02*
X7999Y1150D01*
X7899D01*
X7849Y1100D01*
Y1050D01*
X7899Y1000D01*
X7999D01*
X8049Y950D01*
Y900D01*
X7999Y850D01*
X7899D01*
X7849Y900D01*
X8299Y850D02*
X8199D01*
X8149Y900D01*
Y1000D01*
X8199Y1050D01*
X8299D01*
X8349Y1000D01*
Y950D01*
X8149D01*
X8449Y850D02*
Y1050D01*
X8599D01*
X8649Y1000D01*
Y850D01*
X8749D02*
X8899D01*
X8949Y900D01*
X8899Y950D01*
X8799D01*
X8749Y1000D01*
X8799Y1050D01*
X8949D01*
X9199Y850D02*
X9099D01*
X9049Y900D01*
Y1000D01*
X9099Y1050D01*
X9199D01*
X9249Y1000D01*
Y950D01*
X9049D01*
X9649Y1050D02*
X9749Y850D01*
X9849Y1050D01*
X10149Y850D02*
X9949D01*
X10149Y1050D01*
Y1100D01*
X10099Y1150D01*
X9999D01*
X9949Y1100D01*
X5550Y650D02*
Y350D01*
Y450D01*
X5750Y650D01*
X5600Y500D01*
X5750Y350D01*
X5850Y550D02*
Y400D01*
X5900Y350D01*
X6050D01*
Y550D01*
X6200Y350D02*
X6300D01*
X6350Y400D01*
Y500D01*
X6300Y550D01*
X6200D01*
X6150Y500D01*
Y400D01*
X6200Y350D01*
X6500Y300D02*
X6550Y350D01*
Y400D01*
X6500D01*
Y350D01*
X6550D01*
X6500Y300D01*
X6450Y250D01*
X7050Y350D02*
Y650D01*
X7149Y550D01*
X7249Y650D01*
Y350D01*
X7399Y550D02*
X7499D01*
X7549Y500D01*
Y350D01*
X7399D01*
X7349Y400D01*
X7399Y450D01*
X7549D01*
X7649Y550D02*
Y400D01*
X7699Y350D01*
X7849D01*
Y300D01*
X7799Y250D01*
X7749D01*
X7849Y350D02*
Y550D01*
X8299Y700D02*
Y600D01*
X8249Y550D01*
X8449Y350D02*
X8549D01*
X8499D01*
Y650D01*
X8449Y600D01*
X8899Y650D02*
X8699D01*
Y500D01*
X8799Y550D01*
X8849D01*
X8899Y500D01*
Y400D01*
X8849Y350D01*
X8749D01*
X8699Y400D01*
X1750Y2300D02*
X1850D01*
X1800D01*
Y2600D01*
X1750Y2550D01*
X2000D02*
X2050Y2600D01*
X2150D01*
X2200Y2550D01*
Y2350D01*
X2150Y2300D01*
X2050D01*
X2000Y2350D01*
Y2550D01*
X2300D02*
X2350Y2600D01*
X2450D01*
X2500Y2550D01*
Y2350D01*
X2450Y2300D01*
X2350D01*
X2300Y2350D01*
Y2550D01*
X2600Y2500D02*
Y2350D01*
X2650Y2300D01*
X2800D01*
Y2500D01*
X2900Y2300D02*
Y2500D01*
X3000Y2600D01*
X3100Y2500D01*
Y2300D01*
Y2450D01*
X2900D01*
X1700Y2100D02*
X1750Y2150D01*
X1850D01*
X1900Y2100D01*
Y2050D01*
X1850Y2000D01*
X1800D01*
X1850D01*
X1900Y1950D01*
Y1900D01*
X1850Y1850D01*
X1750D01*
X1700Y1900D01*
X2000Y2100D02*
X2050Y2150D01*
X2150D01*
X2200Y2100D01*
Y1900D01*
X2150Y1850D01*
X2050D01*
X2000Y1900D01*
Y2100D01*
X2300Y2150D02*
Y1850D01*
Y1950D01*
X2500Y2150D01*
X2350Y2000D01*
X2500Y1850D01*
X350Y3300D02*
X450D01*
X400D01*
Y3600D01*
X350Y3550D01*
X600Y3300D02*
Y3500D01*
X650D01*
X700Y3450D01*
Y3300D01*
Y3450D01*
X750Y3500D01*
X800Y3450D01*
Y3300D01*
X900D02*
Y3500D01*
X1000Y3600D01*
X1100Y3500D01*
Y3300D01*
Y3450D01*
X900D01*
X350Y3100D02*
X400Y3150D01*
X500D01*
X550Y3100D01*
Y3050D01*
X500Y3000D01*
X450D01*
X500D01*
X550Y2950D01*
Y2900D01*
X500Y2850D01*
X400D01*
X350Y2900D01*
X650Y3150D02*
Y2850D01*
Y2950D01*
X850Y3150D01*
X700Y3000D01*
X850Y2850D01*
X250Y7800D02*
X350D01*
X300D01*
Y8100D01*
X250Y8050D01*
X500D02*
X550Y8100D01*
X650D01*
X700Y8050D01*
Y7850D01*
X650Y7800D01*
X550D01*
X500Y7850D01*
Y8050D01*
X800Y7800D02*
Y8000D01*
X850D01*
X900Y7950D01*
Y7800D01*
Y7950D01*
X950Y8000D01*
X1000Y7950D01*
Y7800D01*
X1100D02*
Y8000D01*
X1200Y8100D01*
X1300Y8000D01*
Y7800D01*
Y7950D01*
X1100D01*
X200Y7600D02*
X250Y7650D01*
X350D01*
X400Y7600D01*
Y7550D01*
X350Y7500D01*
X300D01*
X350D01*
X400Y7450D01*
Y7400D01*
X350Y7350D01*
X250D01*
X200Y7400D01*
X500Y7600D02*
X550Y7650D01*
X650D01*
X700Y7600D01*
Y7400D01*
X650Y7350D01*
X550D01*
X500Y7400D01*
Y7600D01*
X800D02*
X850Y7650D01*
X950D01*
X1000Y7600D01*
Y7400D01*
X950Y7350D01*
X850D01*
X800Y7400D01*
Y7600D01*
X1850Y8800D02*
X1900Y8850D01*
X2000D01*
X2050Y8800D01*
Y8750D01*
X2000Y8700D01*
X1950D01*
X2000D01*
X2050Y8650D01*
Y8600D01*
X2000Y8550D01*
X1900D01*
X1850Y8600D01*
X2150Y8800D02*
X2200Y8850D01*
X2300D01*
X2350Y8800D01*
Y8600D01*
X2300Y8550D01*
X2200D01*
X2150Y8600D01*
Y8800D01*
X2450Y8550D02*
Y8750D01*
X2500D01*
X2550Y8700D01*
Y8550D01*
Y8700D01*
X2600Y8750D01*
X2650Y8700D01*
Y8550D01*
X2750D02*
Y8750D01*
X2850Y8850D01*
X2950Y8750D01*
Y8550D01*
Y8700D01*
X2750D01*
X1900Y8100D02*
X2000D01*
X1950D01*
Y8400D01*
X1900Y8350D01*
X2150D02*
X2200Y8400D01*
X2300D01*
X2350Y8350D01*
Y8150D01*
X2300Y8100D01*
X2200D01*
X2150Y8150D01*
Y8350D01*
X2450D02*
X2500Y8400D01*
X2600D01*
X2650Y8350D01*
Y8150D01*
X2600Y8100D01*
X2500D01*
X2450Y8150D01*
Y8350D01*
X4300Y7650D02*
X4200Y7600D01*
X4100Y7500D01*
Y7400D01*
X4150Y7350D01*
X4250D01*
X4300Y7400D01*
Y7450D01*
X4250Y7500D01*
X4100D01*
X4400Y7600D02*
X4450Y7650D01*
X4550D01*
X4600Y7600D01*
Y7400D01*
X4550Y7350D01*
X4450D01*
X4400Y7400D01*
Y7600D01*
X4700Y7350D02*
Y7550D01*
X4750D01*
X4800Y7500D01*
Y7350D01*
Y7500D01*
X4850Y7550D01*
X4900Y7500D01*
Y7350D01*
X5000D02*
Y7550D01*
X5100Y7650D01*
X5200Y7550D01*
Y7350D01*
Y7500D01*
X5000D01*
X4500Y7200D02*
X4300D01*
Y7050D01*
X4400Y7100D01*
X4450D01*
X4500Y7050D01*
Y6950D01*
X4450Y6900D01*
X4350D01*
X4300Y6950D01*
X4600Y7150D02*
X4650Y7200D01*
X4750D01*
X4800Y7150D01*
Y6950D01*
X4750Y6900D01*
X4650D01*
X4600Y6950D01*
Y7150D01*
X4300Y3300D02*
X4400D01*
X4350D01*
Y3600D01*
X4300Y3550D01*
X4550D02*
X4600Y3600D01*
X4700D01*
X4750Y3550D01*
Y3350D01*
X4700Y3300D01*
X4600D01*
X4550Y3350D01*
Y3550D01*
X4850D02*
X4900Y3600D01*
X5000D01*
X5050Y3550D01*
Y3350D01*
X5000Y3300D01*
X4900D01*
X4850Y3350D01*
Y3550D01*
X5150Y3300D02*
Y3500D01*
X5200D01*
X5250Y3450D01*
Y3300D01*
Y3450D01*
X5300Y3500D01*
X5350Y3450D01*
Y3300D01*
X5450D02*
Y3500D01*
X5550Y3600D01*
X5650Y3500D01*
Y3300D01*
Y3450D01*
X5450D01*
X4250Y3100D02*
X4300Y3150D01*
X4400D01*
X4450Y3100D01*
Y3050D01*
X4400Y3000D01*
X4350D01*
X4400D01*
X4450Y2950D01*
Y2900D01*
X4400Y2850D01*
X4300D01*
X4250Y2900D01*
X4550Y3100D02*
X4600Y3150D01*
X4700D01*
X4750Y3100D01*
Y2900D01*
X4700Y2850D01*
X4600D01*
X4550Y2900D01*
Y3100D01*
D30*
X5825Y4800D02*
Y6000D01*
X6475Y4800D02*
Y6000D01*
X5825D02*
X6475D01*
X5825Y4800D02*
X6475D01*
X5940Y8062D02*
X7160D01*
X5940Y8338D02*
X7160D01*
X5940Y8062D02*
Y8338D01*
X7160Y8062D02*
Y8338D01*
D31*
X7762Y5267D02*
X8038D01*
X7762Y4923D02*
X8038D01*
X7762Y5867D02*
X8038D01*
X7762Y5523D02*
X8038D01*
X6512Y6233D02*
X6788D01*
X6512Y6577D02*
X6788D01*
X6512Y6883D02*
X6788D01*
X6512Y7227D02*
X6788D01*
X5433Y7762D02*
Y8038D01*
X5777Y7762D02*
Y8038D01*
X7767Y8312D02*
Y8588D01*
X7423Y8312D02*
Y8588D01*
M02*
