M48
;Layer_Color=9474304
;FILE_FORMAT=2:4
INCH,LZ
;TYPE=PLATED
T1F00S00C0.0200
T2F00S00C0.0354
T3F00S00C0.0472
T4F00S00C0.0728
T5F00S00C0.1250
%
T01
X007Y00465
X00765Y0063
T02
X0115Y00275
Y0045
Y00625
Y008
X0105
X009
Y007
Y006
X0105Y00625
Y0045
Y00275
X00975Y00975
X00875
X005
X004
T03
X00275Y00975
T04
X000765Y004564
Y006336
X0023Y00545
Y007222
X003835Y006336
Y004564
X0023Y003678
T05
X001Y001
X0115
Y00975
X001
M30
